<svg width="2572" height="1451" viewBox="0 0 2572 1451" fill="none" xmlns="http://www.w3.org/2000/svg">
<path d="M2571 1276.07L2449.61 1403.41L2393.33 1447.14" stroke="url(#paint0_linear_20_1345)" stroke-opacity="0.7" stroke-width="1.08501" stroke-linecap="round" stroke-linejoin="round"/>
<path d="M0.000427246 1185.61L18.1975 1210.04L155.121 1344.11L296.635 1447.14" stroke="url(#paint1_linear_20_1345)" stroke-opacity="0.7" stroke-width="1.08501" stroke-linecap="round" stroke-linejoin="round"/>
<path d="M0.000427246 980.401L10.7092 1000.65L114.419 1137.09L241.68 1259.56L390.199 1366.05L543.267 1447.13" stroke="url(#paint2_linear_20_1345)" stroke-opacity="0.7" stroke-width="1.08501" stroke-linecap="round" stroke-linejoin="round"/>
<path d="M2571 186.718L2546.88 121.618L2479.97 1.84515" stroke="url(#paint3_linear_20_1345)" stroke-opacity="0.7" stroke-width="1.08501" stroke-linecap="round" stroke-linejoin="round"/>
<path d="M2184.58 1447.14L2198.88 1439.16L2359.59 1316.25L2491.89 1179.97L2571 1068.53" stroke="url(#paint4_linear_20_1345)" stroke-opacity="0.7" stroke-width="1.08501" stroke-linecap="round" stroke-linejoin="round"/>
<path d="M122.43 1.84515L105.522 24.7528L42.2733 141.426L0.000427246 258.26" stroke="url(#paint5_linear_20_1345)" stroke-opacity="0.7" stroke-width="1.08501" stroke-linecap="round" stroke-linejoin="round"/>
<path d="M0.000427246 696.044L38.7304 810.221L112.164 945.816L208.627 1070.18L326.266 1181.54L462.949 1278.16L616.259 1358.36L783.377 1420.48L894.817 1447.13" stroke="url(#paint6_linear_20_1345)" stroke-opacity="0.7" stroke-width="1.08501" stroke-linecap="round" stroke-linejoin="round"/>
<path d="M1331.8 1.84515L1322.26 103.663L1312.64 214.941L1303.94 324.045L1296.17 430.17L1289.33 532.672L1283.41 630.987L1278.38 724.632L1274.15 813.203L1270.77 896.42L1268.15 973.961L1266.94 1019.7" stroke="url(#paint7_linear_20_1345)" stroke-opacity="0.7" stroke-width="1.08501" stroke-linecap="round" stroke-linejoin="round"/>
<path d="M2571 1239.75L2491.89 1179.97L2394.38 1109.55L2298.96 1045.1L2206.12 987.929L2116.42 939.415L2030.35 900.766L1948.5 873.148L1871.44 857.688L1788.63 851.85L1713.91 855.071L1647.03 866.304L1587.65 884.703L1535.31 909.261L1502.1 939.375L1461.52 964.297L1458.46 966.591L1457.33 967.557L1452.86 970.617" stroke="url(#paint8_linear_20_1345)" stroke-opacity="0.7" stroke-width="1.08501" stroke-linecap="round" stroke-linejoin="round"/>
<path d="M347.926 1.84515L285.443 89.5717L234.353 188.369L199.045 293.005L180.848 402.391L181.21 515.361L201.662 630.584L243.855 746.613L307.183 858.093L388.992 959.87L487.749 1050.66L601.604 1129.08L728.503 1193.98L866.273 1244.11L1012.42 1278.41L1164.32 1295.92L1319.28 1295.84L1474.48 1277.56L1627.02 1240.72L1773.89 1185.2L1906.31 1114.51L2020.64 1031.85L2116.42 939.418L2193.24 839.372L2251.01 733.771L2289.74 624.585L2309.55 513.548L2310.6 402.31L2293.12 292.401L2257.33 185.108L2203.47 81.6406L2145.29 1.84515" stroke="url(#paint9_linear_20_1345)" stroke-opacity="0.7" stroke-width="1.08501" stroke-linecap="round" stroke-linejoin="round"/>
<path d="M1249.1 1.84515L1249.22 99.9984L1249.38 211.76L1249.63 321.226L1249.87 427.755L1250.19 530.618L1250.51 629.255L1250.87 723.182L1251.28 811.995L1251.68 895.373L1252.08 973.075L1252.36 1019.7" stroke="url(#paint10_linear_20_1345)" stroke-opacity="0.7" stroke-width="1.08501" stroke-linecap="round" stroke-linejoin="round"/>
<path d="M1687.9 1.84515L1641.8 87.3169L1591.35 188.691L1545.22 289.462L1503.43 388.742L1465.98 485.93L1432.81 580.34L1403.78 671.448L1378.86 758.772L1357.81 841.908L1340.49 920.536L1326.73 994.413L1323.75 1014.26" stroke="url(#paint11_linear_20_1345)" stroke-opacity="0.7" stroke-width="1.08501" stroke-linecap="round" stroke-linejoin="round"/>
<path d="M1471.14 734.173L1434.86 811.592L1404.3 886.234L1379.14 957.776L1388.08 973.357L1394.32 989.541L1395.93 997.11" stroke="url(#paint12_linear_20_1345)" stroke-opacity="0.7" stroke-width="1.08501" stroke-linecap="round" stroke-linejoin="round"/>
<path d="M1368.07 943.643L1351.08 1009.27" stroke="url(#paint13_linear_20_1345)" stroke-opacity="0.7" stroke-width="1.08501" stroke-linecap="round" stroke-linejoin="round"/>
<path d="M1150.63 1011.28L1132.51 946.262L1108.28 872.546L1079.01 795.248L1044.46 714.767L1004.49 631.47L958.832 545.877L907.339 458.473L849.928 369.901L786.559 280.806L717.232 191.952L642.107 104.105L573.786 33.368L538.599 1.84515" stroke="url(#paint14_linear_20_1345)" stroke-opacity="0.7" stroke-width="1.08501" stroke-linecap="round" stroke-linejoin="round"/>
<path d="M965.391 1447.14L987.292 1365.29L1012.41 1278.41L1036.41 1203.85L1059.2 1142.81L1080.61 1096.51L1103.6 1058.02L1124.3 1032.18L1204.41 1041.15L1286.02 1041.11L1367.87 1031.73L1448.63 1012.77L1526.94 984.066L1598.28 947.268L1660.72 903.949L1713.9 855.073L1757.63 801.688L1791.56 744.721L1815.64 685.217L1829.69 624.022L1833.56 562.021L1827.15 500.021L1810.41 438.867L1783.23 379.282L1745.91 322.394L1700.66 271.385L1648.84 226.777L1591.35 188.691L1529.11 157.248L1462.96 132.488L1393.76 114.573L1322.25 103.663L1249.22 99.9983L1175.43 103.823L1101.55 115.338L1028.4 134.945L957.902 162.401L893.809 196.26L836.6 235.916L786.556 280.806L744.162 330.325L709.861 383.871L684.215 440.759L667.669 500.383L660.864 562.061L664.448 625.028L678.981 688.518L705.11 751.686L742.189 811.713L788.528 865.943L843.242 913.853L905.242 954.878L973.524 988.615L1046.92 1014.5L1124.3 1032.18L1142.82 1017.64L1208.24 1024.97L1211.18 1025.29L1217.22 1019.74H1222.73H1237.63L1252.36 1019.7H1266.94H1276.28L1281.35 1019.13L1295.64 1017.48L1309.81 1015.87L1323.74 1014.26L1335.5 1012.93L1336.95 1012.57L1337.35 1012.49L1346.17 1010.44L1351.08 1009.27L1365.01 1006.01L1378.46 1002.87L1383.53 1001.66L1394.04 999.204L1396.09 997.754L1402.77 995.299L1410.26 993.286L1414.21 991.152L1419.56 988.495L1423.71 986.763L1424.59 986.442L1425.24 985.595L1425.72 985.355L1435.1 980.563L1441.26 977.383L1442.63 976.658L1443.07 976.456L1448.31 973.759L1450.44 972.672L1451.45 971.907L1452.54 970.257L1452.94 969.814L1469.73 950.489L1485.19 925.447L1496.5 899.077L1503.54 871.781L1506.2 843.921L1504.39 815.86L1497.99 787.96L1486.88 760.543L1471.14 734.173L1513.37 654.417L1561.76 572.811L1616.59 489.835L1677.95 406.135L1745.91 322.394L1820.47 239.258L1901.63 157.57L1975.59 92.43L2052.73 34.6969L2104.14 1.84515" stroke="url(#paint15_linear_20_1345)" stroke-opacity="0.7" stroke-width="1.08501" stroke-linecap="round" stroke-linejoin="round"/>
<path d="M775.085 1.84515L708.575 46.4928L642.106 104.105L585.299 167.877L538.88 237.043L503.531 310.88L480.06 388.582L469.351 469.262L472.29 552.037L489.843 635.858L522.936 719.68L570.967 799.675L631.759 872.264L704.066 936.599L786.639 991.917L877.949 1037.45L976.505 1072.56L1080.62 1096.51L1188.59 1108.71L1298.67 1108.63L1408.98 1095.91L1517.72 1070.18L1622.8 1031.33L1718.17 981.65L1801.19 923.273L1871.44 857.69L1928.65 786.269L1972.58 710.46L2003.05 631.51L2020 550.708L2023.38 469.182L2013.24 388.098L1989.48 308.424L1952.12 231.085L1901.64 157.57L1841.09 91.9464L1772.28 34.7775L1720.95 1.84515" stroke="url(#paint16_linear_20_1345)" stroke-opacity="0.7" stroke-width="1.08501" stroke-linecap="round" stroke-linejoin="round"/>
<path d="M234.15 1.84515L196.105 54.3039L139.097 161.959L99.159 276.256L77.7807 395.989L76.7339 519.909L97.7495 646.688L142.76 774.634L211.202 897.87L300.297 1010.64L408.395 1111.45L533.563 1198.73L673.466 1271.04L825.609 1326.96L987.293 1365.29L1155.46 1384.85L1327.09 1384.73L1498.92 1364.32L1667.69 1323.18L1829.85 1261.26L1975.75 1182.51L2101.36 1090.55L2206.12 987.931L2289.74 877.135L2352.1 760.422L2393.37 640.045L2413.74 517.896L2413.46 395.868L2392.93 275.532L2352.43 158.375L2292.28 45.6878L2259.75 1.84515" stroke="url(#paint17_linear_20_1345)" stroke-opacity="0.7" stroke-width="1.08501" stroke-linecap="round" stroke-linejoin="round"/>
<path d="M1591.11 1.84515L1570.18 51.6462L1529.11 157.248L1491.51 261.883L1457.45 364.828L1426.89 465.357L1399.84 562.746L1376.17 656.511L1355.79 746.17L1338.64 831.32L1324.55 911.639L1313.32 986.884L1309.82 1015.87" stroke="url(#paint18_linear_20_1345)" stroke-opacity="0.7" stroke-width="1.08501" stroke-linecap="round" stroke-linejoin="round"/>
<path d="M1378.46 1002.87L1388.08 973.357L1415.05 904.794L1404.31 886.234L1390.94 869.446L1375.32 854.631L1357.81 841.908L1338.64 831.32L1318.15 822.986L1296.53 816.907L1274.15 813.203L1251.28 811.995L1228.13 813.284L1205.02 817.189L1182.23 823.872L1160.37 833.091L1140.68 844.445L1123.29 857.65L1108.27 872.546L1095.79 888.811L1122.16 959.95L1137.22 1008.22" stroke="url(#paint19_linear_20_1345)" stroke-opacity="0.7" stroke-width="1.08501" stroke-linecap="round" stroke-linejoin="round"/>
<path d="M1927 1.84515L1907.67 19.9621L1841.09 91.9464L1767.97 181.203L1700.66 271.385L1639.22 361.688L1583.7 451.347L1534.02 539.757L1490.06 626.276L1451.69 710.379L1418.72 791.543L1390.94 869.446L1368.07 943.645L1379.14 957.776L1365.01 1006.01" stroke="url(#paint20_linear_20_1345)" stroke-opacity="0.7" stroke-width="1.08501" stroke-linecap="round" stroke-linejoin="round"/>
<path d="M1237.63 1019.74L1235.86 974.001L1232.35 896.46L1228.13 813.284L1223.1 724.712L1217.26 631.067L1210.61 532.752L1203.09 430.25L1194.71 324.166L1185.49 215.061L1175.43 103.823L1165.56 1.84515" stroke="url(#paint21_linear_20_1345)" stroke-opacity="0.7" stroke-width="1.08501" stroke-linecap="round" stroke-linejoin="round"/>
<path d="M473.417 1.84515L431.667 47.1779L372.848 131.321L327.394 221.503L296.354 316.798L280.974 416.2L282.464 518.581L302.151 622.774L341.405 727.409L399.58 827.737L474.182 919.126L563.76 1000.45L666.705 1070.62L781.164 1128.56L905.124 1173.29L1036.41 1203.85L1172.81 1219.43L1311.91 1219.39L1451.25 1203.08L1588.33 1170.23L1720.51 1120.75L1839.96 1057.58L1943.39 983.623L2030.35 900.769L2100.44 810.908L2153.58 715.854L2189.66 617.338L2208.66 516.93L2210.75 416.119L2196.06 316.234L2164.61 218.524L2116.63 124.074L2052.73 34.6969L2021.41 1.84515" stroke="url(#paint22_linear_20_1345)" stroke-opacity="0.7" stroke-width="1.08501" stroke-linecap="round" stroke-linejoin="round"/>
<path d="M1222.73 1019.74L1219.67 976.779L1213.11 899.762L1205.02 817.189L1195.36 729.382L1184.08 636.623L1171.08 539.275L1156.35 437.86L1139.84 332.983L1121.56 225.207L1101.55 115.338L1079.85 4.21986L1079.33 1.84515" stroke="url(#paint23_linear_20_1345)" stroke-opacity="0.7" stroke-width="1.08501" stroke-linecap="round" stroke-linejoin="round"/>
<path d="M2571 1019.98L2491.48 975.61L2389.34 922.951L2289.74 877.135L2193.24 839.371L2100.44 810.907L2012.03 792.871L1928.65 786.268L1838.79 789.932L1757.63 801.688L1684.79 820.529L1620.02 845.651L1562.81 876.209L1535.31 909.262L1499.84 932.492L1489.61 939.215L1461.35 964.056" stroke="url(#paint24_linear_20_1345)" stroke-opacity="0.7" stroke-width="1.08501" stroke-linecap="round" stroke-linejoin="round"/>
<path d="M2205.2 1447.14L2198.88 1439.16L2122.38 1346.2L2047.94 1260.21L1975.76 1182.51L1906.31 1114.51L1839.96 1057.58L1777.07 1012.93L1718.17 981.65L1655 959.065L1598.28 947.268L1547.67 945.215L1502.82 951.777L1463.45 965.989" stroke="url(#paint25_linear_20_1345)" stroke-opacity="0.7" stroke-width="1.08501" stroke-linecap="round" stroke-linejoin="round"/>
<path d="M1039.55 970.657L1000.18 957.292L955.527 951.695L905.242 954.876L849.04 967.92L786.637 991.915L728.502 1024.53L666.703 1070.62L601.603 1129.08L533.563 1198.73L462.948 1278.16L390.198 1366.05L326.346 1447.13" stroke="url(#paint26_linear_20_1345)" stroke-opacity="0.7" stroke-width="1.08501" stroke-linecap="round" stroke-linejoin="round"/>
<path d="M1207.59 1018.65L1203.69 981.529L1194.07 905.358L1182.23 823.872L1167.98 737.273L1151.27 645.963L1131.99 550.306L1110.08 450.783L1085.53 347.919L1058.31 242.398L1028.4 134.945L995.867 26.3628L987.976 1.84515" stroke="url(#paint27_linear_20_1345)" stroke-opacity="0.7" stroke-width="1.08501" stroke-linecap="round" stroke-linejoin="round"/>
<path d="M1390.98 998.962L1394.32 989.541L1422.62 924.079L1457.05 856.764L1447.91 833.735L1434.86 811.592L1418.72 791.543L1399.96 773.909L1378.86 758.772L1355.79 746.17L1331.15 736.266L1305.23 729.059L1278.37 724.631L1250.87 723.181L1223.1 724.712L1195.36 729.382L1167.98 737.272L1141.73 748.263L1118.06 761.791L1097.08 777.532L1079.01 795.247L1063.91 814.652L1051.99 835.507L1085.93 906.283L1113.99 974.604L1124.54 1005.32" stroke="url(#paint28_linear_20_1345)" stroke-opacity="0.7" stroke-width="1.08501" stroke-linecap="round" stroke-linejoin="round"/>
<path d="M1192.38 1016.96L1188.39 988.132L1175.87 913.128L1160.37 833.091L1141.73 748.263L1119.83 659.008L1094.5 565.685L1065.72 468.739L1033.35 368.774L997.439 266.433L957.903 162.401L914.906 57.4443L890.307 1.84515" stroke="url(#paint29_linear_20_1345)" stroke-opacity="0.7" stroke-width="1.08501" stroke-linecap="round" stroke-linejoin="round"/>
<path d="M610.744 1.84515L573.785 33.368L510.014 103.784L457.595 180.277L417.376 262.125L390.321 348.402L377.398 438.222L379.733 530.498L398.454 624.223L434.647 718.109L487.709 807.929L555.266 889.576L636.027 962.084L728.504 1024.53L831.046 1076.02L941.922 1115.72L1059.2 1142.81L1180.94 1156.66L1305.03 1156.58L1429.35 1142.17L1551.82 1113.02L1670.06 1069.05L1777.07 1012.93L1870.07 947.068L1948.5 873.15L2012.03 792.872L2060.5 707.762L2093.8 619.351L2111.88 529.008L2114.77 438.141L2102.45 347.879L2075.08 259.388L2032.6 173.714L1975.6 92.43L1907.68 19.9621L1885.53 1.84515" stroke="url(#paint30_linear_20_1345)" stroke-opacity="0.7" stroke-width="1.08501" stroke-linecap="round" stroke-linejoin="round"/>
<path d="M0.000427246 25.7593L13.2456 1.84515" stroke="url(#paint31_linear_20_1345)" stroke-opacity="0.7" stroke-width="1.08501" stroke-linecap="round" stroke-linejoin="round"/>
<path d="M1936.58 1447.13L1948.38 1442.54L2122.38 1346.2L2271.31 1234.12L2394.38 1109.56L2491.49 975.61L2562.75 835.225L2571 809.297" stroke="url(#paint32_linear_20_1345)" stroke-opacity="0.7" stroke-width="1.08501" stroke-linecap="round" stroke-linejoin="round"/>
<path d="M1103.2 1000.49L1076.75 1002.58L1046.92 1014.5L1013.58 1037.41L976.504 1072.55L941.92 1115.71L905.123 1173.29L866.272 1244.1L825.61 1326.96L783.376 1420.48L772.024 1447.13" stroke="url(#paint33_linear_20_1345)" stroke-opacity="0.7" stroke-width="1.08501" stroke-linecap="round" stroke-linejoin="round"/>
<path d="M1723.33 1447.14L1710.04 1416.26L1667.69 1323.18L1627.02 1240.72L1588.33 1170.23L1551.82 1113.02L1517.72 1070.18L1481.28 1035.4L1448.63 1012.77L1419.64 1001.1L1394.04 999.205" stroke="url(#paint34_linear_20_1345)" stroke-opacity="0.7" stroke-width="1.08501" stroke-linecap="round" stroke-linejoin="round"/>
<path d="M1500.93 1.84515L1494.21 23.5851L1462.97 132.488L1434.38 240.224L1408.45 345.987L1385.22 449.092L1364.61 548.856L1346.61 644.755L1331.15 736.266L1318.15 822.986L1307.44 904.633L1298.95 980.926L1295.65 1017.48" stroke="url(#paint35_linear_20_1345)" stroke-opacity="0.7" stroke-width="1.08501" stroke-linecap="round" stroke-linejoin="round"/>
<path d="M0.000427246 1367.18L66.8318 1433.81L84.8681 1447.14" stroke="url(#paint36_linear_20_1345)" stroke-opacity="0.7" stroke-width="1.08501" stroke-linecap="round" stroke-linejoin="round"/>
<path d="M1177.84 1015.31L1174.62 996.184L1159.48 922.67L1140.68 844.445L1118.06 761.791L1091.4 675.031L1060.61 584.567L1025.5 490.882L986.044 394.5L942.12 296.064L893.809 196.26L841.148 95.8515L787.683 1.84515" stroke="url(#paint37_linear_20_1345)" stroke-opacity="0.7" stroke-width="1.08501" stroke-linecap="round" stroke-linejoin="round"/>
<path d="M1368.07 943.645L1355.11 931.245L1340.49 920.536L1324.55 911.639L1307.44 904.634L1289.44 899.521L1270.76 896.421L1251.68 895.374L1232.36 896.461L1213.11 899.762L1194.07 905.358L1175.87 913.128L1159.49 922.67L1144.99 933.782L1132.51 946.262L1122.16 959.951L1113.99 974.605L1108.11 990.025L1105.98 999.888" stroke="url(#paint38_linear_20_1345)" stroke-opacity="0.7" stroke-width="1.08501" stroke-linecap="round" stroke-linejoin="round"/>
<path d="M1211.18 1025.29L1204.42 1041.15L1196.89 1068.53L1188.59 1108.71L1180.94 1156.66L1172.81 1219.42L1164.32 1295.92L1155.46 1384.85L1149.74 1447.13" stroke="url(#paint39_linear_20_1345)" stroke-opacity="0.7" stroke-width="1.08501" stroke-linecap="round" stroke-linejoin="round"/>
<path d="M1159.25 1013.25L1142.82 1017.64L1127.56 1014.18L1076.75 1002.59L1074.78 1001.9L1013.99 980.482L973.527 988.614L928.275 1007.21L877.95 1037.45L831.047 1076.02L781.165 1128.56L728.505 1193.98L673.469 1271.04L616.26 1358.36L561.748 1447.13" stroke="url(#paint40_linear_20_1345)" stroke-opacity="0.7" stroke-width="1.08501" stroke-linecap="round" stroke-linejoin="round"/>
<path d="M1584.63 1447.14L1710.04 1416.26L1888.11 1347.49L2047.94 1260.21L2185.07 1158.43L2298.96 1045.1L2389.34 922.952L2456.26 794.683L2499.86 662.59L2520.47 528.968L2518.62 395.788L2494.7 264.783L2449.17 137.521L2382.46 15.4122L2372.19 1.84515" stroke="url(#paint41_linear_20_1345)" stroke-opacity="0.7" stroke-width="1.08501" stroke-linecap="round" stroke-linejoin="round"/>
<path d="M1520.54 1447.13L1498.92 1364.32L1474.48 1277.56L1451.25 1203.08L1429.35 1142.16L1408.98 1095.91L1387.27 1057.54L1367.87 1031.73L1350.64 1017.28L1335.5 1012.93" stroke="url(#paint42_linear_20_1345)" stroke-opacity="0.7" stroke-width="1.08501" stroke-linecap="round" stroke-linejoin="round"/>
<path d="M1338.96 1003.43L1326.73 994.413L1313.32 986.884L1298.95 980.925L1283.85 976.577L1268.15 973.961L1252.08 973.075L1235.86 974.001L1219.67 976.779L1203.69 981.529L1188.39 988.132L1174.62 996.184L1162.47 1005.61" stroke="url(#paint43_linear_20_1345)" stroke-opacity="0.7" stroke-width="1.08501" stroke-linecap="round" stroke-linejoin="round"/>
<path d="M1044.54 971.504L1041.73 969.692L1041.16 968.968L1013.06 944.893L988.462 916.63L968.453 885.187L961.004 879.672L914.383 845.128L852.706 809.015L783.096 777.613L705.112 751.685L618.514 732.078L522.936 719.679L434.646 718.108L341.404 727.409L243.855 746.613L142.762 774.633L38.7304 810.223L0.000427246 825.521" stroke="url(#paint44_linear_20_1345)" stroke-opacity="0.7" stroke-width="1.08501" stroke-linecap="round" stroke-linejoin="round"/>
<path d="M1471.14 734.171L1451.69 710.378L1429.11 689.403L1403.78 671.447L1376.17 656.51L1346.61 644.754L1315.57 636.22L1283.41 630.986L1250.51 629.254L1217.26 631.066L1184.09 636.622L1151.27 645.962L1119.83 659.006L1091.41 675.03L1066.24 693.71L1044.46 714.766L1026.31 737.836L1011.89 762.635L1001.43 788.804L1043.38 857.448L1078.85 924.682L1108.12 990.023L1112.66 1002.22" stroke="url(#paint45_linear_20_1345)" stroke-opacity="0.7" stroke-width="1.08501" stroke-linecap="round" stroke-linejoin="round"/>
<path d="M1797 1.84515L1772.28 34.7775L1708.07 130.516L1648.85 226.777L1594.74 322.716L1545.74 417.609L1501.86 510.77L1463.05 601.557L1429.11 689.404L1399.96 773.91L1375.32 854.631L1355.11 931.245L1338.96 1003.43L1346.17 1010.44" stroke="url(#paint46_linear_20_1345)" stroke-opacity="0.7" stroke-width="1.08501" stroke-linecap="round" stroke-linejoin="round"/>
<path d="M1094.99 1.84515L1079.85 4.21986L995.87 26.3628L914.908 57.4443L841.151 95.8515L775.126 140.903L717.231 191.952L668.034 248.316L628.016 309.39L597.78 374.451L578.053 442.731L569.478 513.508L572.859 585.935L588.923 659.088L618.514 732.079L660.867 801.568L714.132 864.494L777.259 920.133L849.042 967.922L928.274 1007.22L1013.58 1037.41L1103.61 1058.02L1196.89 1068.53L1291.98 1068.49L1387.28 1057.54L1481.28 1035.4L1572.27 1001.9L1655.01 959.065L1727.23 908.659L1788.63 851.852L1838.79 789.933L1877.56 724.067L1904.78 655.304L1920.32 584.769L1924.06 513.467L1915.97 442.328L1896 372.277L1864.04 304.156L1820.47 239.258L1767.97 181.203L1708.07 130.516L1641.8 87.3169L1570.18 51.6462L1494.21 23.5851L1414.77 3.33426L1405.07 1.84515" stroke="url(#paint47_linear_20_1345)" stroke-opacity="0.7" stroke-width="1.08501" stroke-linecap="round" stroke-linejoin="round"/>
<path d="M1155.7 1012.45L1162.46 1005.61L1144.99 933.782L1123.29 857.65L1097.08 777.533L1066.24 693.711L1030.53 606.629L989.788 516.729L943.933 424.534L892.883 330.728L836.6 235.916L775.123 140.903L708.573 46.4928L673.426 1.84515" stroke="url(#paint48_linear_20_1345)" stroke-opacity="0.7" stroke-width="1.08501" stroke-linecap="round" stroke-linejoin="round"/>
<path d="M1338.96 1003.43L1337.35 1012.49" stroke="url(#paint49_linear_20_1345)" stroke-opacity="0.7" stroke-width="1.08501" stroke-linecap="round" stroke-linejoin="round"/>
<path d="M1164.08 1013.78L1162.47 1005.61" stroke="url(#paint50_linear_20_1345)" stroke-opacity="0.7" stroke-width="1.08501" stroke-linecap="round" stroke-linejoin="round"/>
<path d="M1079.09 990.105L1075.34 983.14L1073.41 963.333L1074.62 943.766L1078.85 924.683L1085.93 906.284L1095.8 888.811L1063.91 814.652L1026.31 737.837L982.706 658.766L932.824 577.924L876.541 495.794L813.654 413.059L744.166 330.325L668.035 248.316L585.301 167.877L510.015 103.784L431.669 47.1779L358.074 1.84515" stroke="url(#paint51_linear_20_1345)" stroke-opacity="0.7" stroke-width="1.08501" stroke-linecap="round" stroke-linejoin="round"/>
<path d="M1059.8 980.605L1055.45 974.445L1045.15 951.095L1040.68 945.74L1034.4 938.211L1003.04 900.568L997.801 895.375L953.918 851.894L947.759 846.901L897.313 805.675L887.328 765.818L884.148 726.041L887.409 686.909L822.188 623.177L748.996 560.774L667.671 500.384L578.052 442.733L480.06 388.583L390.32 348.403L296.354 316.8L199.045 293.006L99.1606 276.257L0.000427246 265.831" stroke="url(#paint52_linear_20_1345)" stroke-opacity="0.7" stroke-width="1.08501" stroke-linecap="round" stroke-linejoin="round"/>
<path d="M1332.2 1447.14L1327.09 1384.73L1319.28 1295.84L1311.91 1219.39L1305.02 1156.58L1298.66 1108.63L1291.98 1068.49L1286.02 1041.12L1280.83 1025.25L1276.28 1019.7" stroke="url(#paint53_linear_20_1345)" stroke-opacity="0.7" stroke-width="1.08501" stroke-linecap="round" stroke-linejoin="round"/>
<path d="M1059.2 980.321L1055.45 974.442L1049.46 967.598L1015.31 928.506L1008.71 922.386L968.453 885.186L953.918 851.891L945.303 818.194L942.404 784.536L884.148 726.039L818.001 669.031L743.641 614.156L660.866 562.06L569.477 513.506L469.35 469.261L377.397 438.221L280.974 416.199L180.848 402.39L77.7823 395.988L0.000427246 395.907" stroke="url(#paint54_linear_20_1345)" stroke-opacity="0.7" stroke-width="1.08501" stroke-linecap="round" stroke-linejoin="round"/>
<path d="M1076.91 989.018L1075.34 983.14L1072.44 978.711L1038.95 927.42L1036.69 903.708L1038.22 880.316L1043.38 857.449L1051.99 835.507L1011.89 762.637L965.353 688.115L912.049 612.386L851.819 536.013L784.464 459.64L709.863 383.871L628.015 309.39L538.879 237.043L457.594 180.277L372.847 131.321L285.443 89.5717L196.106 54.3039L105.521 24.7528L20.9755 1.84515" stroke="url(#paint55_linear_20_1345)" stroke-opacity="0.7" stroke-width="1.08501" stroke-linecap="round" stroke-linejoin="round"/>
<path d="M2571 398.363L2518.62 395.786L2413.46 395.866L2310.6 402.308L2210.75 416.117L2114.77 438.139L2023.38 469.18L1924.06 513.466L1833.56 562.019L1751.71 614.076L1678.32 668.99L1613.18 725.998L1555.93 784.496L1552.91 817.629L1544.61 850.119L1531.25 881.522L1512.85 911.395L1489.62 939.214L1462.56 965.303L1452.94 970.98L1451.25 971.744L1447.1 972.831L1442.63 976.656" stroke="url(#paint56_linear_20_1345)" stroke-opacity="0.7" stroke-width="1.08501" stroke-linecap="round" stroke-linejoin="round"/>
<path d="M2571 536.736L2520.47 528.966L2413.75 517.895L2309.55 513.547L2208.66 516.929L2111.88 529.007L2020 550.706L1920.32 584.767L1829.69 624.021L1747.89 667.662L1674.73 714.927L1615.83 760.501L1609.83 765.171L1557.94 813L1552.91 817.63L1507.74 867.19L1503.55 871.779L1470.21 915.462L1461.36 927.017L1455.4 949.844L1445.9 971.866L1443.08 976.455" stroke="url(#paint57_linear_20_1345)" stroke-opacity="0.7" stroke-width="1.08501" stroke-linecap="round" stroke-linejoin="round"/>
<path d="M1951.16 1447.14L1948.38 1442.55L1888.11 1347.49L1829.85 1261.26L1773.89 1185.21L1720.51 1120.75L1670.06 1069.06L1622.8 1031.33L1572.27 1001.9L1526.94 984.067L1486.6 976.619L1450.89 978.431L1432.25 984.832L1424.15 987.61L1419.56 988.496" stroke="url(#paint58_linear_20_1345)" stroke-opacity="0.7" stroke-width="1.08501" stroke-linecap="round" stroke-linejoin="round"/>
<path d="M2430.97 1.84515L2382.46 15.4122L2292.28 45.6878L2203.46 81.6406L2116.62 124.074L2032.6 173.714L1952.12 231.085L1864.03 304.156L1783.23 379.282L1709.76 455.655L1643.53 532.631L1584.43 609.488L1532.29 685.619L1486.88 760.543L1447.91 833.735L1415.05 904.795L1422.62 924.079L1426.89 943.645L1427.98 963.333L1425.96 982.818L1424.27 986.079" stroke="url(#paint59_linear_20_1345)" stroke-opacity="0.7" stroke-width="1.08501" stroke-linecap="round" stroke-linejoin="round"/>
<path d="M2571 118.719L2546.88 121.618L2449.17 137.52L2352.43 158.375L2257.33 185.108L2164.61 218.524L2075.08 259.387L1989.48 308.423L1896 372.276L1810.41 438.866L1732.75 507.428L1662.85 577.239L1600.57 647.653L1545.7 718.068L1497.99 787.96L1457.05 856.763L1462.28 880.154L1463.69 903.707L1461.35 927.017L1433.01 971.705L1425.97 982.817L1425.24 985.595" stroke="url(#paint60_linear_20_1345)" stroke-opacity="0.7" stroke-width="1.08501" stroke-linecap="round" stroke-linejoin="round"/>
<path d="M1415.1 1.84515L1414.78 3.33426L1393.76 114.573L1374.52 224.523L1357.08 332.338L1341.46 437.336L1327.65 538.791L1315.58 636.221L1305.23 729.06L1296.53 816.907L1289.45 899.52L1283.85 976.577L1281.35 1019.13" stroke="url(#paint61_linear_20_1345)" stroke-opacity="0.7" stroke-width="1.08501" stroke-linecap="round" stroke-linejoin="round"/>
<path d="M2571 681.27L2499.86 662.589L2393.37 640.044L2289.74 624.584L2189.65 617.337L2093.8 619.35L2003.05 631.508L1904.78 655.303L1815.64 685.215L1735.4 720.403L1663.7 760.098L1606.93 798.99L1600.25 803.579L1584.51 840.779L1537.93 876.41L1531.24 881.523L1491.15 919.729L1485.19 925.446L1458.37 957.131L1445.89 971.866" stroke="url(#paint62_linear_20_1345)" stroke-opacity="0.7" stroke-width="1.08501" stroke-linecap="round" stroke-linejoin="round"/>
<path d="M1403.18 994.493L1403.58 993.647L1426.89 943.644L1462.28 880.154L1504.39 815.859L1553.55 751.201L1610.11 686.665L1600.57 647.653L1584.43 609.487L1561.76 572.81L1534.02 539.756L1501.86 510.769L1465.98 485.929L1426.89 465.356L1385.22 449.091L1341.46 437.335L1296.17 430.169L1249.87 427.754L1203.09 430.25L1156.35 437.859L1110.09 450.782L1065.72 468.738L1025.5 490.881L989.789 516.728L958.83 545.876L932.822 577.923L912.048 612.385L896.83 648.861L887.409 686.906L944.981 751.363L995.104 816.02L1038.22 880.315L1074.62 943.765L1100.26 996.948L1100.83 998.075" stroke="url(#paint63_linear_20_1345)" stroke-opacity="0.7" stroke-width="1.08501" stroke-linecap="round" stroke-linejoin="round"/>
<path d="M1383.53 1001.66L1390.09 999.245L1390.9 998.963H1390.98L1396.09 997.755L1402.78 995.3L1414.21 991.153L1422.95 988.616L1424.15 987.207L1424.6 986.443L1432.25 984.832L1450.89 978.431L1462.96 972.231L1502.82 951.778L1514.34 943.847L1548.52 920.295L1587.65 884.706L1620.02 845.653L1645.42 803.904L1663.7 760.101L1674.73 714.929L1678.31 668.993L1674.41 622.896L1662.85 577.24L1643.53 532.632L1616.6 489.836L1583.7 451.348L1545.74 417.61L1503.43 388.743L1457.45 364.829L1408.45 345.988L1357.08 332.339L1303.94 324.046L1249.63 321.227L1194.71 324.167L1139.84 332.984L1085.53 347.92L1033.35 368.774L986.045 394.501L943.933 424.535L907.337 458.474L876.538 495.795L851.818 536.014L833.581 578.65L822.187 623.177L818 669.033L821.382 715.695L832.856 762.557L852.705 809.017L880.403 853.021L914.664 892.597L954.844 927.502L1001.22 945.457L1041.16 968.97L1043.86 970.942L1044.54 971.505L1049.29 975.089L1051.31 976.176L1054.12 977.827L1059.2 980.323L1059.8 980.604L1061.61 981.49L1068.14 984.711L1077.03 989.502L1079.37 990.629L1081.54 991.314L1089.59 994.897L1101.71 999.969L1104.57 1000.17L1106.87 1000.21L1112.74 1002.47L1115.92 1003.39" stroke="url(#paint64_linear_20_1345)" stroke-opacity="0.7" stroke-width="1.08501" stroke-linecap="round" stroke-linejoin="round"/>
<path d="M1080.37 992.441L1070.75 988.575L1049.9 981.731L1037.7 975.732L1000.18 957.294L954.844 927.501L902.305 916.631L843.244 913.853L777.258 920.133L704.066 936.6L636.026 962.084L563.76 1000.45L487.749 1050.66L408.397 1111.45L326.266 1181.54L241.68 1259.56L155.121 1344.11L66.8317 1433.81L54.0288 1447.14" stroke="url(#paint65_linear_20_1345)" stroke-opacity="0.7" stroke-width="1.08501" stroke-linecap="round" stroke-linejoin="round"/>
<path d="M1049.82 974.524L1049.05 973.921L1048.65 973.76L1032.18 954.878L1023.65 947.389L988.462 916.631L979.524 910.592L938.016 882.45L914.383 845.129L897.313 805.674L832.857 762.556L760.188 723.263L678.983 688.519L588.922 659.088L489.842 635.858L398.453 624.223L302.151 622.774L201.662 630.584L97.7511 646.688L0.000427246 667.945" stroke="url(#paint66_linear_20_1345)" stroke-opacity="0.7" stroke-width="1.08501" stroke-linecap="round" stroke-linejoin="round"/>
<path d="M1068.14 984.711L1066.49 982.336L1045.15 951.094L1038.95 927.421L1035.4 922.912L995.709 872.265L993.132 843.962L995.104 816.022L1001.43 788.806L952.71 719.116L896.83 648.863L833.582 578.65L762.765 509.081L684.217 440.76L597.779 374.452L503.531 310.881L417.375 262.126L327.394 221.504L234.353 188.369L139.098 161.96L42.2733 141.427L0.000427246 134.704" stroke="url(#paint67_linear_20_1345)" stroke-opacity="0.7" stroke-width="1.08501" stroke-linecap="round" stroke-linejoin="round"/>
<path d="M1041.73 969.693L1040.52 970.096L1001.22 945.456L967.164 915.987L938.016 882.45L880.404 853.02L815.264 829.146L742.191 811.713L660.866 801.567L570.966 799.675L487.709 807.929L399.58 827.736L307.183 858.092L211.204 897.87L112.164 945.819L10.7092 1000.65L0.000427246 1006.89" stroke="url(#paint68_linear_20_1345)" stroke-opacity="0.7" stroke-width="1.08501" stroke-linecap="round" stroke-linejoin="round"/>
<path d="M1211.18 1025.29L1280.83 1025.25H1280.99L1295.12 1023.6L1350.64 1017.28L1362.52 1014.46L1375.68 1011.4L1419.64 1001.09L1424.28 999.403L1428.18 997.954L1486.6 976.616L1547.67 945.214L1601.26 908.174L1647.03 866.304L1684.8 820.528L1714.31 771.613L1735.4 720.402L1747.88 667.661L1751.71 614.076L1746.68 560.45L1732.75 507.427L1709.76 455.653L1677.95 406.133L1639.22 361.686L1594.74 322.715L1545.22 289.46L1491.51 261.881L1434.38 240.222L1374.51 224.521L1312.63 214.939L1249.39 211.758L1185.49 215.06L1121.56 225.205L1058.31 242.396L997.44 266.431L942.123 296.062L892.885 330.726L849.927 369.899L813.653 413.058L784.464 459.639L762.765 509.078L748.996 560.771L743.641 614.156L747.184 668.507L760.188 723.26L783.096 777.611L815.264 829.144L855.282 875.645L902.305 916.629L955.529 951.695L1013.99 980.481L1049.9 981.729L1070.75 988.573L1077.03 989.5L1079.09 990.103L1080.25 990.666L1080.94 991.874L1089.59 994.894L1100.83 998.075L1104.57 1000.17L1112.74 1002.46L1115.92 1003.39L1124.54 1005.32L1137.22 1008.22L1150.63 1011.28L1155.7 1012.45L1159.24 1013.25L1164.08 1013.78L1177.84 1015.31L1192.38 1016.96L1207.6 1018.65L1217.22 1019.73" stroke="url(#paint69_linear_20_1345)" stroke-opacity="0.7" stroke-width="1.08501" stroke-linecap="round" stroke-linejoin="round"/>
<path d="M2571 260.597L2494.71 264.784L2392.93 275.533L2293.12 292.402L2196.06 316.235L2102.45 347.88L2013.24 388.099L1915.97 442.329L1827.16 500.022L1746.68 560.452L1674.41 622.896L1610.11 686.667L1613.17 726.001L1609.83 765.173L1600.25 803.582L1550.37 845.332L1544.61 850.122L1501.41 894.086L1496.5 899.078L1465.7 937.124L1455.4 949.846L1435.99 979.196L1435.11 980.564" stroke="url(#paint70_linear_20_1345)" stroke-opacity="0.7" stroke-width="1.08501" stroke-linecap="round" stroke-linejoin="round"/>
<path d="M1414.61 990.305L1414.73 990.063L1427.98 963.331L1463.69 903.706L1506.2 843.919L1555.93 784.496L1553.55 751.201L1545.7 718.067L1532.29 685.617L1513.37 654.416L1490.06 626.274L1463.05 601.555L1432.81 580.338L1399.84 562.745L1364.61 548.854L1327.65 538.789L1289.33 532.67L1250.19 530.616L1210.62 532.75L1171.08 539.273L1131.99 550.304L1094.51 565.684L1060.61 584.565L1030.53 606.628L1004.49 631.468L982.705 658.764L965.354 688.114L952.711 719.114L944.982 751.362L942.405 784.536L993.133 843.96L1036.69 903.706L1073.41 963.331L1088.87 993.526L1089.11 993.968" stroke="url(#paint71_linear_20_1345)" stroke-opacity="0.7" stroke-width="1.08501" stroke-linecap="round" stroke-linejoin="round"/>
<path d="M1050.86 975.692L1049.29 975.088L1040.52 970.096L1013.06 944.894L1002.03 937.929L967.164 915.987L914.665 892.596L855.282 875.647L788.531 865.943L714.131 864.495L631.759 872.265L555.265 889.576L474.181 919.127L388.992 959.87L300.299 1010.64L208.627 1070.18L114.419 1137.09L18.1975 1210.04L0.000427246 1224.5" stroke="url(#paint72_linear_20_1345)" stroke-opacity="0.7" stroke-width="1.08501" stroke-linecap="round" stroke-linejoin="round"/>
<path d="M2571 838.726L2562.75 835.224L2456.26 794.682L2352.11 760.421L2251.01 733.769L2153.58 715.853L2060.5 707.76L1972.58 710.459L1877.56 724.066L1791.57 744.72L1714.31 771.613L1645.42 803.902L1584.51 840.779L1562.81 876.208L1520.94 905.679L1512.85 911.395L1477.46 943.482L1469.73 950.488L1453.87 969.41L1452.94 970.98L1451.69 972.027" stroke="url(#paint73_linear_20_1345)" stroke-opacity="0.7" stroke-width="1.08501" stroke-linecap="round" stroke-linejoin="round"/>
<path d="M2493.7 1447.14L2449.61 1403.41L2359.59 1316.25L2271.3 1234.12L2185.06 1158.43L2101.36 1090.55L2020.64 1031.85L1943.38 983.623L1870.07 947.068L1801.19 923.274L1727.23 908.66L1660.72 903.95L1601.26 908.176L1548.51 920.295L1502.1 939.378L1462.56 965.306L1457.33 967.56" stroke="url(#paint74_linear_20_1345)" stroke-opacity="0.7" stroke-width="1.08501" stroke-linecap="round" stroke-linejoin="round"/>
<path d="M1054.13 977.823L1051.31 976.172L1049.7 974.682L1049.05 973.917L1032.18 954.875L1015.31 928.504L1003.04 900.564L995.709 872.261L991.441 867.672L945.303 818.192L940.19 813.562L887.329 765.814L881.209 761.143L821.383 715.691L747.184 668.505L664.45 625.025L572.858 585.932L472.289 552.034L379.732 530.495L282.464 518.577L181.21 515.357L76.7356 519.906L0.000427246 527.999" stroke="url(#paint75_linear_20_1345)" stroke-opacity="0.7" stroke-width="1.08501" stroke-linecap="round" stroke-linejoin="round"/>
<path d="M2570.96 1H0V1449.47H2570.96V1Z" stroke="url(#paint76_linear_20_1345)" stroke-opacity="0.7" stroke-width="1.08501" stroke-linecap="round" stroke-linejoin="round"/>
<defs>
<linearGradient id="paint0_linear_20_1345" x1="2571" y1="1276.07" x2="2378.88" y2="1291.92" gradientUnits="userSpaceOnUse">
<stop stop-color="#9673F7"/>
<stop offset="1" stop-color="#CABBF6" stop-opacity="0"/>
</linearGradient>
<linearGradient id="paint1_linear_20_1345" x1="296.635" y1="1185.61" x2="-23.704" y2="1214.46" gradientUnits="userSpaceOnUse">
<stop stop-color="#9673F7"/>
<stop offset="1" stop-color="#CABBF6" stop-opacity="0"/>
</linearGradient>
<linearGradient id="paint2_linear_20_1345" x1="543.268" y1="980.401" x2="-43.162" y2="1034.6" gradientUnits="userSpaceOnUse">
<stop stop-color="#9673F7"/>
<stop offset="1" stop-color="#CABBF6" stop-opacity="0"/>
</linearGradient>
<linearGradient id="paint3_linear_20_1345" x1="2571" y1="1.84522" x2="2472.05" y2="5.71389" gradientUnits="userSpaceOnUse">
<stop stop-color="#9673F7"/>
<stop offset="1" stop-color="#CABBF6" stop-opacity="0"/>
</linearGradient>
<linearGradient id="paint4_linear_20_1345" x1="2571" y1="1068.53" x2="2153.07" y2="1102.4" gradientUnits="userSpaceOnUse">
<stop stop-color="#9673F7"/>
<stop offset="1" stop-color="#CABBF6" stop-opacity="0"/>
</linearGradient>
<linearGradient id="paint5_linear_20_1345" x1="122.43" y1="1.84524" x2="-10.6643" y2="6.89147" gradientUnits="userSpaceOnUse">
<stop stop-color="#9673F7"/>
<stop offset="1" stop-color="#CABBF6" stop-opacity="0"/>
</linearGradient>
<linearGradient id="paint6_linear_20_1345" x1="894.817" y1="696.044" x2="-70.7033" y2="787.385" gradientUnits="userSpaceOnUse">
<stop stop-color="#9673F7"/>
<stop offset="1" stop-color="#CABBF6" stop-opacity="0"/>
</linearGradient>
<linearGradient id="paint7_linear_20_1345" x1="1331.8" y1="1.84551" x2="1261.19" y2="2.20279" gradientUnits="userSpaceOnUse">
<stop stop-color="#9673F7"/>
<stop offset="1" stop-color="#CABBF6" stop-opacity="0"/>
</linearGradient>
<linearGradient id="paint8_linear_20_1345" x1="2571" y1="851.85" x2="1414.31" y2="1116.61" gradientUnits="userSpaceOnUse">
<stop stop-color="#9673F7"/>
<stop offset="1" stop-color="#CABBF6" stop-opacity="0"/>
</linearGradient>
<linearGradient id="paint9_linear_20_1345" x1="2310.6" y1="1.84561" x2="30.9337" y2="299.767" gradientUnits="userSpaceOnUse">
<stop stop-color="#9673F7"/>
<stop offset="1" stop-color="#CABBF6" stop-opacity="0"/>
</linearGradient>
<linearGradient id="paint10_linear_20_1345" x1="1252.36" y1="1.84551" x2="1248.81" y2="1.84642" gradientUnits="userSpaceOnUse">
<stop stop-color="#9673F7"/>
<stop offset="1" stop-color="#CABBF6" stop-opacity="0"/>
</linearGradient>
<linearGradient id="paint11_linear_20_1345" x1="1687.9" y1="1.84551" x2="1291.78" y2="13.1593" gradientUnits="userSpaceOnUse">
<stop stop-color="#9673F7"/>
<stop offset="1" stop-color="#CABBF6" stop-opacity="0"/>
</linearGradient>
<linearGradient id="paint12_linear_20_1345" x1="1471.14" y1="734.173" x2="1371.06" y2="736.953" gradientUnits="userSpaceOnUse">
<stop stop-color="#9673F7"/>
<stop offset="1" stop-color="#CABBF6" stop-opacity="0"/>
</linearGradient>
<linearGradient id="paint13_linear_20_1345" x1="1368.07" y1="943.643" x2="1349.58" y2="944.023" gradientUnits="userSpaceOnUse">
<stop stop-color="#9673F7"/>
<stop offset="1" stop-color="#CABBF6" stop-opacity="0"/>
</linearGradient>
<linearGradient id="paint14_linear_20_1345" x1="1150.63" y1="1.84551" x2="485.87" y2="33.8508" gradientUnits="userSpaceOnUse">
<stop stop-color="#9673F7"/>
<stop offset="1" stop-color="#CABBF6" stop-opacity="0"/>
</linearGradient>
<linearGradient id="paint15_linear_20_1345" x1="2104.14" y1="1.84566" x2="542.705" y2="125.663" gradientUnits="userSpaceOnUse">
<stop stop-color="#9673F7"/>
<stop offset="1" stop-color="#CABBF6" stop-opacity="0"/>
</linearGradient>
<linearGradient id="paint16_linear_20_1345" x1="2023.38" y1="1.84554" x2="352.323" y2="188.148" gradientUnits="userSpaceOnUse">
<stop stop-color="#9673F7"/>
<stop offset="1" stop-color="#CABBF6" stop-opacity="0"/>
</linearGradient>
<linearGradient id="paint17_linear_20_1345" x1="2413.74" y1="1.84564" x2="-85.4935" y2="337.2" gradientUnits="userSpaceOnUse">
<stop stop-color="#9673F7"/>
<stop offset="1" stop-color="#CABBF6" stop-opacity="0"/>
</linearGradient>
<linearGradient id="paint18_linear_20_1345" x1="1591.11" y1="1.84551" x2="1285.02" y2="8.5881" gradientUnits="userSpaceOnUse">
<stop stop-color="#9673F7"/>
<stop offset="1" stop-color="#CABBF6" stop-opacity="0"/>
</linearGradient>
<linearGradient id="paint19_linear_20_1345" x1="1415.05" y1="811.995" x2="1073.19" y2="856.163" gradientUnits="userSpaceOnUse">
<stop stop-color="#9673F7"/>
<stop offset="1" stop-color="#CABBF6" stop-opacity="0"/>
</linearGradient>
<linearGradient id="paint20_linear_20_1345" x1="1927" y1="1.84551" x2="1316.39" y2="28.9818" gradientUnits="userSpaceOnUse">
<stop stop-color="#9673F7"/>
<stop offset="1" stop-color="#CABBF6" stop-opacity="0"/>
</linearGradient>
<linearGradient id="paint21_linear_20_1345" x1="1237.63" y1="1.84551" x2="1159.18" y2="2.28656" gradientUnits="userSpaceOnUse">
<stop stop-color="#9673F7"/>
<stop offset="1" stop-color="#CABBF6" stop-opacity="0"/>
</linearGradient>
<linearGradient id="paint22_linear_20_1345" x1="2210.75" y1="1.84558" x2="142.616" y2="262.131" gradientUnits="userSpaceOnUse">
<stop stop-color="#9673F7"/>
<stop offset="1" stop-color="#CABBF6" stop-opacity="0"/>
</linearGradient>
<linearGradient id="paint23_linear_20_1345" x1="1222.73" y1="1.84551" x2="1066.63" y2="3.59189" gradientUnits="userSpaceOnUse">
<stop stop-color="#9673F7"/>
<stop offset="1" stop-color="#CABBF6" stop-opacity="0"/>
</linearGradient>
<linearGradient id="paint24_linear_20_1345" x1="2571" y1="786.268" x2="1513.31" y2="1185.04" gradientUnits="userSpaceOnUse">
<stop stop-color="#9673F7"/>
<stop offset="1" stop-color="#CABBF6" stop-opacity="0"/>
</linearGradient>
<linearGradient id="paint25_linear_20_1345" x1="2205.2" y1="945.216" x2="1408.65" y2="1038.69" gradientUnits="userSpaceOnUse">
<stop stop-color="#9673F7"/>
<stop offset="1" stop-color="#CABBF6" stop-opacity="0"/>
</linearGradient>
<linearGradient id="paint26_linear_20_1345" x1="1039.55" y1="951.695" x2="273.119" y2="1039.31" gradientUnits="userSpaceOnUse">
<stop stop-color="#9673F7"/>
<stop offset="1" stop-color="#CABBF6" stop-opacity="0"/>
</linearGradient>
<linearGradient id="paint27_linear_20_1345" x1="1207.59" y1="1.84551" x2="968.573" y2="5.94499" gradientUnits="userSpaceOnUse">
<stop stop-color="#9673F7"/>
<stop offset="1" stop-color="#CABBF6" stop-opacity="0"/>
</linearGradient>
<linearGradient id="paint28_linear_20_1345" x1="1457.05" y1="723.181" x2="1021.73" y2="772.808" gradientUnits="userSpaceOnUse">
<stop stop-color="#9673F7"/>
<stop offset="1" stop-color="#CABBF6" stop-opacity="0"/>
</linearGradient>
<linearGradient id="paint29_linear_20_1345" x1="1192.38" y1="1.84551" x2="863.705" y2="9.61186" gradientUnits="userSpaceOnUse">
<stop stop-color="#9673F7"/>
<stop offset="1" stop-color="#CABBF6" stop-opacity="0"/>
</linearGradient>
<linearGradient id="paint30_linear_20_1345" x1="2114.77" y1="1.84556" x2="249.957" y2="224.627" gradientUnits="userSpaceOnUse">
<stop stop-color="#9673F7"/>
<stop offset="1" stop-color="#CABBF6" stop-opacity="0"/>
</linearGradient>
<linearGradient id="paint31_linear_20_1345" x1="13.2456" y1="1.84516" x2="-1.1462" y2="2.47813" gradientUnits="userSpaceOnUse">
<stop stop-color="#9673F7"/>
<stop offset="1" stop-color="#CABBF6" stop-opacity="0"/>
</linearGradient>
<linearGradient id="paint32_linear_20_1345" x1="2571" y1="809.298" x2="1884.61" y2="863.51" gradientUnits="userSpaceOnUse">
<stop stop-color="#9673F7"/>
<stop offset="1" stop-color="#CABBF6" stop-opacity="0"/>
</linearGradient>
<linearGradient id="paint33_linear_20_1345" x1="1103.2" y1="1000.49" x2="743.903" y2="1021.65" gradientUnits="userSpaceOnUse">
<stop stop-color="#9673F7"/>
<stop offset="1" stop-color="#CABBF6" stop-opacity="0"/>
</linearGradient>
<linearGradient id="paint34_linear_20_1345" x1="1723.33" y1="999.205" x2="1366.06" y2="1020.06" gradientUnits="userSpaceOnUse">
<stop stop-color="#9673F7"/>
<stop offset="1" stop-color="#CABBF6" stop-opacity="0"/>
</linearGradient>
<linearGradient id="paint35_linear_20_1345" x1="1500.93" y1="1.84551" x2="1277.5" y2="5.43162" gradientUnits="userSpaceOnUse">
<stop stop-color="#9673F7"/>
<stop offset="1" stop-color="#CABBF6" stop-opacity="0"/>
</linearGradient>
<linearGradient id="paint36_linear_20_1345" x1="84.8681" y1="1367.18" x2="-6.8732" y2="1374.91" gradientUnits="userSpaceOnUse">
<stop stop-color="#9673F7"/>
<stop offset="1" stop-color="#CABBF6" stop-opacity="0"/>
</linearGradient>
<linearGradient id="paint37_linear_20_1345" x1="1177.84" y1="1.84551" x2="753.484" y2="14.8182" gradientUnits="userSpaceOnUse">
<stop stop-color="#9673F7"/>
<stop offset="1" stop-color="#CABBF6" stop-opacity="0"/>
</linearGradient>
<linearGradient id="paint38_linear_20_1345" x1="1368.07" y1="895.374" x2="1093.62" y2="950.025" gradientUnits="userSpaceOnUse">
<stop stop-color="#9673F7"/>
<stop offset="1" stop-color="#CABBF6" stop-opacity="0"/>
</linearGradient>
<linearGradient id="paint39_linear_20_1345" x1="1211.18" y1="1025.29" x2="1144.3" y2="1026.06" gradientUnits="userSpaceOnUse">
<stop stop-color="#9673F7"/>
<stop offset="1" stop-color="#CABBF6" stop-opacity="0"/>
</linearGradient>
<linearGradient id="paint40_linear_20_1345" x1="1159.25" y1="980.482" x2="515.422" y2="1045.94" gradientUnits="userSpaceOnUse">
<stop stop-color="#9673F7"/>
<stop offset="1" stop-color="#CABBF6" stop-opacity="0"/>
</linearGradient>
<linearGradient id="paint41_linear_20_1345" x1="2520.47" y1="1.84566" x2="1504.33" y2="54.0927" gradientUnits="userSpaceOnUse">
<stop stop-color="#9673F7"/>
<stop offset="1" stop-color="#CABBF6" stop-opacity="0"/>
</linearGradient>
<linearGradient id="paint42_linear_20_1345" x1="1520.54" y1="1012.93" x2="1319.32" y2="1019.74" gradientUnits="userSpaceOnUse">
<stop stop-color="#9673F7"/>
<stop offset="1" stop-color="#CABBF6" stop-opacity="0"/>
</linearGradient>
<linearGradient id="paint43_linear_20_1345" x1="1338.96" y1="973.075" x2="1176.9" y2="1042.9" gradientUnits="userSpaceOnUse">
<stop stop-color="#9673F7"/>
<stop offset="1" stop-color="#CABBF6" stop-opacity="0"/>
</linearGradient>
<linearGradient id="paint44_linear_20_1345" x1="1044.54" y1="718.108" x2="17.4304" y2="1054.32" gradientUnits="userSpaceOnUse">
<stop stop-color="#9673F7"/>
<stop offset="1" stop-color="#CABBF6" stop-opacity="0"/>
</linearGradient>
<linearGradient id="paint45_linear_20_1345" x1="1471.14" y1="629.254" x2="964.84" y2="679.886" gradientUnits="userSpaceOnUse">
<stop stop-color="#9673F7"/>
<stop offset="1" stop-color="#CABBF6" stop-opacity="0"/>
</linearGradient>
<linearGradient id="paint46_linear_20_1345" x1="1797" y1="1.84551" x2="1299" y2="19.8044" gradientUnits="userSpaceOnUse">
<stop stop-color="#9673F7"/>
<stop offset="1" stop-color="#CABBF6" stop-opacity="0"/>
</linearGradient>
<linearGradient id="paint47_linear_20_1345" x1="1924.06" y1="1.84553" x2="464.209" y2="149.056" gradientUnits="userSpaceOnUse">
<stop stop-color="#9673F7"/>
<stop offset="1" stop-color="#CABBF6" stop-opacity="0"/>
</linearGradient>
<linearGradient id="paint48_linear_20_1345" x1="1162.46" y1="1.84551" x2="630.847" y2="22.2732" gradientUnits="userSpaceOnUse">
<stop stop-color="#9673F7"/>
<stop offset="1" stop-color="#CABBF6" stop-opacity="0"/>
</linearGradient>
<linearGradient id="paint49_linear_20_1345" x1="1338.96" y1="1003.43" x2="1337.21" y2="1003.46" gradientUnits="userSpaceOnUse">
<stop stop-color="#9673F7"/>
<stop offset="1" stop-color="#CABBF6" stop-opacity="0"/>
</linearGradient>
<linearGradient id="paint50_linear_20_1345" x1="1164.08" y1="1005.61" x2="1162.32" y2="1005.63" gradientUnits="userSpaceOnUse">
<stop stop-color="#9673F7"/>
<stop offset="1" stop-color="#CABBF6" stop-opacity="0"/>
</linearGradient>
<linearGradient id="paint51_linear_20_1345" x1="1095.8" y1="1.8455" x2="295.471" y2="49.286" gradientUnits="userSpaceOnUse">
<stop stop-color="#9673F7"/>
<stop offset="1" stop-color="#CABBF6" stop-opacity="0"/>
</linearGradient>
<linearGradient id="paint52_linear_20_1345" x1="1059.8" y1="265.831" x2="-78.1986" y2="399.817" gradientUnits="userSpaceOnUse">
<stop stop-color="#9673F7"/>
<stop offset="1" stop-color="#CABBF6" stop-opacity="0"/>
</linearGradient>
<linearGradient id="paint53_linear_20_1345" x1="1332.2" y1="1019.7" x2="1271.33" y2="1020.33" gradientUnits="userSpaceOnUse">
<stop stop-color="#9673F7"/>
<stop offset="1" stop-color="#CABBF6" stop-opacity="0"/>
</linearGradient>
<linearGradient id="paint54_linear_20_1345" x1="1059.2" y1="395.908" x2="-70.5208" y2="558.495" gradientUnits="userSpaceOnUse">
<stop stop-color="#9673F7"/>
<stop offset="1" stop-color="#CABBF6" stop-opacity="0"/>
</linearGradient>
<linearGradient id="paint55_linear_20_1345" x1="1076.91" y1="1.8455" x2="-64.4218" y2="98.789" gradientUnits="userSpaceOnUse">
<stop stop-color="#9673F7"/>
<stop offset="1" stop-color="#CABBF6" stop-opacity="0"/>
</linearGradient>
<linearGradient id="paint56_linear_20_1345" x1="2571" y1="395.786" x2="1371.13" y2="580.869" gradientUnits="userSpaceOnUse">
<stop stop-color="#9673F7"/>
<stop offset="1" stop-color="#CABBF6" stop-opacity="0"/>
</linearGradient>
<linearGradient id="paint57_linear_20_1345" x1="2571" y1="513.547" x2="1387.37" y2="742.559" gradientUnits="userSpaceOnUse">
<stop stop-color="#9673F7"/>
<stop offset="1" stop-color="#CABBF6" stop-opacity="0"/>
</linearGradient>
<linearGradient id="paint58_linear_20_1345" x1="1951.16" y1="976.619" x2="1377.05" y2="1028.12" gradientUnits="userSpaceOnUse">
<stop stop-color="#9673F7"/>
<stop offset="1" stop-color="#CABBF6" stop-opacity="0"/>
</linearGradient>
<linearGradient id="paint59_linear_20_1345" x1="2430.97" y1="1.8455" x2="1332.35" y2="91.8926" gradientUnits="userSpaceOnUse">
<stop stop-color="#9673F7"/>
<stop offset="1" stop-color="#CABBF6" stop-opacity="0"/>
</linearGradient>
<linearGradient id="paint60_linear_20_1345" x1="2571" y1="118.719" x2="1337.24" y2="248.207" gradientUnits="userSpaceOnUse">
<stop stop-color="#9673F7"/>
<stop offset="1" stop-color="#CABBF6" stop-opacity="0"/>
</linearGradient>
<linearGradient id="paint61_linear_20_1345" x1="1415.1" y1="1.84551" x2="1269.51" y2="3.3654" gradientUnits="userSpaceOnUse">
<stop stop-color="#9673F7"/>
<stop offset="1" stop-color="#CABBF6" stop-opacity="0"/>
</linearGradient>
<linearGradient id="paint62_linear_20_1345" x1="2571" y1="617.337" x2="1419.27" y2="907.573" gradientUnits="userSpaceOnUse">
<stop stop-color="#9673F7"/>
<stop offset="1" stop-color="#CABBF6" stop-opacity="0"/>
</linearGradient>
<linearGradient id="paint63_linear_20_1345" x1="1610.11" y1="427.754" x2="831.212" y2="506.131" gradientUnits="userSpaceOnUse">
<stop stop-color="#9673F7"/>
<stop offset="1" stop-color="#CABBF6" stop-opacity="0"/>
</linearGradient>
<linearGradient id="paint64_linear_20_1345" x1="1678.31" y1="321.228" x2="751.015" y2="414.092" gradientUnits="userSpaceOnUse">
<stop stop-color="#9673F7"/>
<stop offset="1" stop-color="#CABBF6" stop-opacity="0"/>
</linearGradient>
<linearGradient id="paint65_linear_20_1345" x1="1080.37" y1="913.853" x2="-11.4778" y2="1080.72" gradientUnits="userSpaceOnUse">
<stop stop-color="#9673F7"/>
<stop offset="1" stop-color="#CABBF6" stop-opacity="0"/>
</linearGradient>
<linearGradient id="paint66_linear_20_1345" x1="1049.82" y1="622.774" x2="-32.3088" y2="879.233" gradientUnits="userSpaceOnUse">
<stop stop-color="#9673F7"/>
<stop offset="1" stop-color="#CABBF6" stop-opacity="0"/>
</linearGradient>
<linearGradient id="paint67_linear_20_1345" x1="1068.14" y1="134.704" x2="-83.2485" y2="249.595" gradientUnits="userSpaceOnUse">
<stop stop-color="#9673F7"/>
<stop offset="1" stop-color="#CABBF6" stop-opacity="0"/>
</linearGradient>
<linearGradient id="paint68_linear_20_1345" x1="1041.73" y1="799.675" x2="63.5151" y2="1190.17" gradientUnits="userSpaceOnUse">
<stop stop-color="#9673F7"/>
<stop offset="1" stop-color="#CABBF6" stop-opacity="0"/>
</linearGradient>
<linearGradient id="paint69_linear_20_1345" x1="1751.71" y1="211.758" x2="664.778" y2="318.708" gradientUnits="userSpaceOnUse">
<stop stop-color="#9673F7"/>
<stop offset="1" stop-color="#CABBF6" stop-opacity="0"/>
</linearGradient>
<linearGradient id="paint70_linear_20_1345" x1="2571" y1="260.597" x2="1353.49" y2="413.127" gradientUnits="userSpaceOnUse">
<stop stop-color="#9673F7"/>
<stop offset="1" stop-color="#CABBF6" stop-opacity="0"/>
</linearGradient>
<linearGradient id="paint71_linear_20_1345" x1="1555.93" y1="530.617" x2="895.306" y2="600.076" gradientUnits="userSpaceOnUse">
<stop stop-color="#9673F7"/>
<stop offset="1" stop-color="#CABBF6" stop-opacity="0"/>
</linearGradient>
<linearGradient id="paint72_linear_20_1345" x1="1050.86" y1="864.495" x2="-34.8481" y2="1116.16" gradientUnits="userSpaceOnUse">
<stop stop-color="#9673F7"/>
<stop offset="1" stop-color="#CABBF6" stop-opacity="0"/>
</linearGradient>
<linearGradient id="paint73_linear_20_1345" x1="2571" y1="707.761" x2="1476.28" y2="1075.95" gradientUnits="userSpaceOnUse">
<stop stop-color="#9673F7"/>
<stop offset="1" stop-color="#CABBF6" stop-opacity="0"/>
</linearGradient>
<linearGradient id="paint74_linear_20_1345" x1="2493.7" y1="903.95" x2="1390.75" y2="1071.05" gradientUnits="userSpaceOnUse">
<stop stop-color="#9673F7"/>
<stop offset="1" stop-color="#CABBF6" stop-opacity="0"/>
</linearGradient>
<linearGradient id="paint75_linear_20_1345" x1="1054.13" y1="515.358" x2="-57.0674" y2="716.481" gradientUnits="userSpaceOnUse">
<stop stop-color="#9673F7"/>
<stop offset="1" stop-color="#CABBF6" stop-opacity="0"/>
</linearGradient>
<linearGradient id="paint76_linear_20_1345" x1="2570.96" y1="1.00051" x2="-173.453" y2="387.808" gradientUnits="userSpaceOnUse">
<stop stop-color="#9673F7"/>
<stop offset="1" stop-color="#CABBF6" stop-opacity="0"/>
</linearGradient>
</defs>
</svg>
