<svg width="2572" height="672" viewBox="0 0 2572 672" fill="none" xmlns="http://www.w3.org/2000/svg">
<path d="M1869.83 671H701.201M1869.83 671H2571M1869.83 671L1797.95 554.911L1742 464.56L1697.22 392.242L1660.56 333.059L1630.01 283.708L1604.16 241.949L1581.99 206.149L1562.76 175.096L1545.93 147.916L1531.07 123.923L1517.87 102.626L1506.06 83.5684L1495.43 66.4102L1485.82 50.8832L1477.07 36.7613L1469.07 23.8535L1461.77 12.0477L1455.03 1.152H1127.11L1120.2 12.0477L1112.68 23.8535L1104.47 36.7613L1095.49 50.8832L1085.6 66.4102L1074.7 83.5684L1062.57 102.626L1049.03 123.923L1033.79 147.916L1016.5 175.096L996.765 206.149L974.002 241.949L947.434 283.708L916.045 333.059L878.396 392.242L832.419 464.56L774.972 554.911L701.171 671H0M2570.97 671L2411.69 554.911H2002.52L1923.89 464.56L1860.96 392.242L1809.45 333.059L1766.5 283.708L1730.16 241.949L1699.01 206.149L1672 175.096L1648.37 147.916L1627.49 123.923L1608.95 102.626L1592.36 83.5684L1577.41 66.4102H1003.65L988.438 83.5684L971.516 102.626L952.616 123.923L931.35 147.916L907.269 175.096L879.743 206.149L847.995 241.949L810.944 283.708L767.185 333.059L714.679 392.242L650.552 464.56L570.431 554.911H161.26L0.029981 671M2188.49 392.242H387.187M2337.29 671L2207.15 554.911L2105.85 464.56M2105.85 464.56H468.685M2105.85 464.56H2287.75L2411.72 554.911M2105.85 464.56L2024.77 392.242L1958.4 333.059L1903.08 283.708L1856.26 241.949M468.685 464.56L365.891 554.911L233.803 671M468.685 464.56L550.963 392.242L618.324 333.059L674.484 283.708L722.017 241.949M468.685 464.56H286.788M469.434 333.059H2107.29M469.434 333.059L537.964 283.708L595.98 241.949H722.017M469.434 333.059L387.217 392.242L286.788 464.56M1856.26 241.949H722.017M1856.26 241.949H1982.3L2039.6 283.708M1856.26 241.949L1816.13 206.149L1781.32 175.096L1750.86 147.916L1723.99 123.923L1700.09 102.626L1678.71 83.5684L1659.45 66.4102H1577.47L1563.96 50.8832L1551.68 36.7613L1540.45 23.8535L1530.18 12.0477H1051.97L1041.48 23.8535L1030.04 36.7613L1017.52 50.8832L1003.74 66.4102H921.766L902.237 83.5684L880.522 102.626L856.261 123.923L828.975 147.916L798.065 175.096L762.752 206.149L722.017 241.949M286.788 464.56L161.32 554.911M2039.6 283.708H537.994M2039.6 283.708L2107.32 333.059L2188.55 392.242L2287.78 464.56M2103.6 671L2002.58 554.911H570.491L467.547 671M645.73 206.111H1933.15M688.831 175.058H1890.56M1853.27 147.878H726.57M1192.77 1.076L1188.58 11.9717L1184.02 23.7775L1179.05 36.6853L1173.63 50.8072L1167.64 66.3342L1161.02 83.4934L1153.68 102.55L1145.48 123.847L1136.25 147.84L1125.8 175.02L1113.85 206.073L1100.07 241.873L1083.98 283.632L1065 332.983L1042.2 392.166L1014.38 464.484L979.602 554.835L934.915 670.925M759.786 123.847H1820.29M1258.27 1.038L1256.81 11.9337L1255.22 23.7395L1253.48 36.6473L1251.59 50.7692L1249.53 66.2962L1247.22 83.4554L1244.68 102.512L1241.83 123.809L1238.63 147.802L1235 174.982L1230.84 206.035L1226.05 241.835L1220.44 283.594L1213.86 332.945L1205.92 392.128L1196.24 464.446L1184.14 554.797L1168.6 670.887M1791.03 102.512H789.379M1791.03 102.512L1820.26 123.809L1853.15 147.802L1890.44 174.982L1933.03 206.035L1982.18 241.835M1791.03 102.512L1764.85 83.4554L1741.28 66.2962H1659.3L1641.9 50.7692L1626.05 36.6473L1611.59 23.7395H970.048L955.372 36.6473L939.288 50.7692L921.616 66.2962H839.638L815.796 83.4554L789.319 102.512L759.727 123.809L726.42 147.802L688.681 174.982L645.581 206.035L595.86 241.835M1764.88 83.4554H815.886M1682.93 23.7395L1666.7 11.9337L1651.78 1.038H1520.62M1682.93 23.7395L1700.63 36.6473L1720.01 50.7692L1741.34 66.2962M1682.93 23.7395H1611.65L1598.38 11.9337H1530.06L1520.59 1.038H1455M1719.95 50.7312H861.233M861.233 50.7312L839.668 66.2582M861.233 50.7312L880.852 36.6093M1700.57 36.6093H880.852M880.852 36.6093L898.763 23.7024M1127.03 1H995.866M995.866 1L983.496 11.8957L970.048 23.7024H898.763M995.866 1H930.272L915.176 11.8957M898.763 23.7024L915.176 11.8957M1061.46 1L1051.82 11.8957H915.176M1586.13 1L1598.32 11.8957H1666.64M1636 670.887L1593.25 554.797L1559.98 464.446L1533.35 392.128L1511.55 332.945L1493.37 283.594L1478 241.835L1464.82 206.035L1453.38 174.982L1443.38 147.802L1434.54 123.809L1426.69 102.512L1419.68 83.4554L1413.36 66.2962L1407.64 50.7692L1402.43 36.6473L1397.67 23.7395L1393.33 11.9337L1389.31 1.038M1323.72 1.038L1325.01 11.9337L1326.38 23.7395L1327.91 36.6473L1329.56 50.7692L1331.39 66.2962L1333.39 83.4554L1335.64 102.512L1338.13 123.809L1340.94 147.802L1344.12 174.982L1347.74 206.035L1351.93 241.835L1356.82 283.594L1362.6 332.945L1369.54 392.128L1378.02 464.446L1388.59 554.797L1402.19 670.887" stroke="url(#paint0_linear_64_8)" stroke-width="1.08501" stroke-linecap="round" stroke-linejoin="round"/>
<defs>
<linearGradient id="paint0_linear_64_8" x1="1285.5" y1="1" x2="1285.5" y2="671" gradientUnits="userSpaceOnUse">
<stop stop-color="#897FFF"/>
<stop offset="1" stop-color="#1E1594" stop-opacity="0"/>
</linearGradient>
</defs>
</svg>
