<svg width="376" height="376" viewBox="0 0 376 376" fill="none" xmlns="http://www.w3.org/2000/svg">
<path d="M332.344 260.274L317.31 266.739L301.956 272.593L286.395 277.791L270.726 282.3L255.062 286.087L239.514 289.116L224.196 291.358L209.217 292.801L194.705 293.412L180.763 293.176L167.517 292.086L155.083 290.122L143.564 287.292L133.093 283.596L123.78 279.046L115.733 273.665L109.062 267.454L103.869 260.48L100.24 252.766L98.2945 244.519L98.2643 244.368L98.228 243.241L98.1613 241.138L98.046 237.085L98.0098 235.861L97.9976 235.352L98.543 231.91L99.1065 228.353L99.5064 225.796L100.549 222.645L101.27 220.482L102.821 215.792L104.057 213.296L104.542 212.314L107.953 205.424L108.959 203.885L108.977 203.855L114.758 195.02L114.897 194.808L115.164 194.481L122.12 185.901L123.623 184.047L119.072 169.401L114.582 154.914L110.128 140.583L105.729 126.404L115.824 115.449L127.519 104.651L140.71 94.1259L155.265 84.0311L171.013 74.4875L187.779 65.6105" stroke="url(#paint0_linear_82_12)" stroke-width="1.08501" stroke-linecap="round" stroke-linejoin="round"/>
<path d="M327.503 247.435L312.548 253.894L297.272 259.729L281.785 264.904L266.182 269.382L250.573 273.126L235.091 276.101L219.828 278.301L204.903 279.676L190.44 280.216L176.54 279.913L163.324 278.731L150.92 276.689L139.426 273.775L135.33 260.383L131.27 247.113L127.246 233.977L116.843 229.923L107.572 225.003L104.057 213.296" stroke="url(#paint1_linear_82_12)" stroke-width="1.08501" stroke-linecap="round" stroke-linejoin="round"/>
<path d="M322.715 234.71L307.84 241.163L292.636 246.986L277.209 252.136L261.679 256.578L246.137 260.28L230.71 263.213L215.507 265.352L200.631 266.667L186.204 267.145L172.346 266.764L159.173 265.515L146.794 263.389L135.329 260.383L124.889 256.499L115.6 251.767L111.564 238.315L107.571 225.002L101.27 220.482" stroke="url(#paint2_linear_82_12)" stroke-width="1.08501" stroke-linecap="round" stroke-linejoin="round"/>
<path d="M317.965 222.106L303.168 228.553L288.038 234.352L272.683 239.478L257.214 243.895L241.738 247.555L226.366 250.446L211.217 252.53L196.396 253.79L182.017 254.196L168.208 253.742L155.065 252.415L142.71 250.203L131.27 247.113L120.848 243.15L116.843 229.922L112.88 216.822L104.542 212.314" stroke="url(#paint3_linear_82_12)" stroke-width="1.08501" stroke-linecap="round" stroke-linejoin="round"/>
<path d="M313.263 209.612L298.539 216.047L283.481 221.833L268.193 226.941L252.79 231.316L237.381 234.946L222.069 237.788L206.969 239.824L192.203 241.017L177.872 241.363L164.093 240.842L150.987 239.442L138.662 237.151L127.246 233.976L123.259 220.961L119.321 208.067L108.977 203.855" stroke="url(#paint4_linear_82_12)" stroke-width="1.08501" stroke-linecap="round" stroke-linejoin="round"/>
<path d="M308.597 197.239L293.946 203.662L278.961 209.437L263.746 214.508L248.41 218.865L233.055 222.452L217.81 225.251L202.764 227.233L188.04 228.372L173.758 228.657L160.022 228.057L146.952 226.585L134.657 224.215L123.259 220.961L112.88 216.823L108.959 203.886" stroke="url(#paint5_linear_82_12)" stroke-width="1.08501" stroke-linecap="round" stroke-linejoin="round"/>
<path d="M303.974 184.968L289.401 191.385L274.483 197.142L259.334 202.195L244.065 206.521L228.777 210.066L213.586 212.823L198.595 214.75L183.926 215.835L169.686 216.053L155.986 215.392L142.952 213.847L130.688 211.399L119.321 208.067L115.406 195.293L114.758 195.021" stroke="url(#paint6_linear_82_12)" stroke-width="1.08501" stroke-linecap="round" stroke-linejoin="round"/>
<path d="M299.4 172.807L284.894 179.218L270.054 184.956L254.972 189.992L239.763 194.282L224.53 197.796L209.4 200.505L194.464 202.389L179.842 203.413L165.645 203.577L151.993 202.843L138.984 201.226L126.756 198.705L115.407 195.293L115.165 194.482" stroke="url(#paint7_linear_82_12)" stroke-width="1.08501" stroke-linecap="round" stroke-linejoin="round"/>
<path d="M294.867 160.761L280.433 167.159L265.654 172.885L250.639 177.89L235.497 182.15L220.33 185.634L205.255 188.301L190.373 190.13L175.794 191.1L161.645 191.203L148.03 190.409L135.057 188.719L122.853 186.125L122.12 185.901" stroke="url(#paint8_linear_82_12)" stroke-width="1.08501" stroke-linecap="round" stroke-linejoin="round"/>
<path d="M159.731 152.205L154.896 137.445L150.115 122.848L145.388 108.414L140.711 94.1262L136.087 80.0018L131.506 66.029L126.98 52.1954L122.496 38.5133" stroke="url(#paint9_linear_82_12)" stroke-width="1.08501" stroke-linecap="round" stroke-linejoin="round"/>
<path d="M146.133 162.616L141.407 147.891L136.723 133.318L132.1 118.903L127.519 104.651L122.986 90.5454L118.502 76.5846L114.073 62.7752L109.686 49.1174" stroke="url(#paint10_linear_82_12)" stroke-width="1.08501" stroke-linecap="round" stroke-linejoin="round"/>
<path d="M134.063 173.28L129.428 158.586L124.841 144.05L120.308 129.677L115.825 115.449L111.383 101.373L106.99 87.4552L102.639 73.6762L98.3494 60.0426" stroke="url(#paint11_linear_82_12)" stroke-width="1.08501" stroke-linecap="round" stroke-linejoin="round"/>
<path d="M114.897 194.809L110.438 180.218L106.02 165.79L114.582 154.914L124.841 144.049L136.723 133.318L150.114 122.848L164.869 112.783L180.835 103.24L197.82 94.3626" stroke="url(#paint12_linear_82_12)" stroke-width="1.08501" stroke-linecap="round" stroke-linejoin="round"/>
<path d="M107.953 205.425L107.268 203.165L103.566 190.907L99.2214 176.54L94.9254 162.319L90.6777 148.255L86.4726 134.33L82.3037 120.551L78.1833 106.918L84.6305 95.8776L80.4919 82.3227L88.5811 71.1553" stroke="url(#paint13_linear_82_12)" stroke-width="1.08501" stroke-linecap="round" stroke-linejoin="round"/>
<path d="M102.822 215.792L101.252 210.539L98.4954 201.347L94.2174 187.047L89.9881 172.904L85.801 158.901L81.6503 145.043L77.5481 131.331L73.4883 117.758L78.1844 106.918L74.1004 93.4173L80.493 82.3225" stroke="url(#paint14_linear_82_12)" stroke-width="1.08501" stroke-linecap="round" stroke-linejoin="round"/>
<path d="M123.623 184.048L134.063 173.28L146.134 162.616L159.731 152.206L174.698 142.171L190.876 132.646L208.085 123.751" stroke="url(#paint15_linear_82_12)" stroke-width="1.08501" stroke-linecap="round" stroke-linejoin="round"/>
<path d="M99.507 225.796L97.0287 217.441L95.2411 211.436L91.0177 197.214L86.8428 183.15L82.7043 169.22L78.6142 155.435L81.6499 145.043L86.4733 134.33L93.0537 123.399L88.8183 109.566L97.0711 98.489L92.8053 84.7465L102.64 73.676L114.074 62.7751L126.98 52.1955L141.226 42.0582L156.671 32.5025L173.134 23.6498" stroke="url(#paint16_linear_82_12)" stroke-width="1.08501" stroke-linecap="round" stroke-linejoin="round"/>
<path d="M97.9979 235.352L94.6593 224.039L93.7806 221.076L89.6058 206.939L85.4794 192.948L81.3893 179.103L82.7041 169.22L85.8005 158.901L90.6783 148.254L97.3315 137.384L93.0535 123.399L101.379 112.371L97.0709 98.4886L106.99 87.4546L118.503 76.5841L131.506 66.0287L145.855 55.8974L161.403 46.3478L177.957 37.489" stroke="url(#paint17_linear_82_12)" stroke-width="1.08501" stroke-linecap="round" stroke-linejoin="round"/>
<path d="M98.2641 244.368L97.4157 241.508L97.1673 240.642L94.1981 230.619L94.083 230.177L92.9681 226.408L89.9445 216.125L89.6052 206.939L91.017 197.214L94.2163 187.046L99.2214 176.539L106.02 165.79L101.651 151.508L97.3309 137.384L105.729 126.404L101.379 112.371L111.383 101.373L122.986 90.5451L136.087 80.0017L150.538 69.8886L166.183 60.3391L182.841 51.4742" stroke="url(#paint18_linear_82_12)" stroke-width="1.08501" stroke-linecap="round" stroke-linejoin="round"/>
<path d="M100.24 252.767L98.313 246.223L97.4889 243.423L96.0893 238.667L94.1986 230.62L94.0835 230.177L93.7805 221.076L95.2409 211.436L98.4948 201.347L103.567 190.907L110.438 180.218L119.072 169.402L129.428 158.586L141.407 147.891L154.895 137.445L169.759 127.392L185.828 117.867L202.922 108.978" stroke="url(#paint19_linear_82_12)" stroke-width="1.08501" stroke-linecap="round" stroke-linejoin="round"/>
<path d="M103.87 260.481L100.622 249.477L99.7432 246.477L98.2284 243.242" stroke="url(#paint20_linear_82_12)" stroke-width="1.08501" stroke-linecap="round" stroke-linejoin="round"/>
<path d="M96.0895 238.667L94.1384 232.05L91.9872 224.712L89.9452 216.126L88.8243 212.327L85.8492 202.226L85.4796 192.949L86.8428 183.151L89.9877 172.904L94.9261 162.319L101.652 151.509L110.129 140.584L120.309 129.677L132.1 118.903L145.389 108.415L160.04 98.3318L175.897 88.7883L192.773 79.9113" stroke="url(#paint21_linear_82_12)" stroke-width="1.08501" stroke-linecap="round" stroke-linejoin="round"/>
<path d="M109.063 267.455L104.948 253.56L99.7432 246.477L98.1618 241.139" stroke="url(#paint22_linear_82_12)" stroke-width="1.08501" stroke-linecap="round" stroke-linejoin="round"/>
<path d="M168.353 9.96117L173.134 23.6493L177.957 37.4888L182.841 51.4739L187.779 65.6104L192.772 79.9106L197.82 94.3621L202.922 108.977L208.084 123.75" stroke="url(#paint23_linear_82_12)" stroke-width="1.08501" stroke-linecap="round" stroke-linejoin="round"/>
<path d="M151.993 18.8085L156.671 32.5027L161.403 46.3483L166.184 60.3394L171.013 74.488L175.897 88.7881L180.836 103.24L185.829 117.867L190.876 132.646" stroke="url(#paint24_linear_82_12)" stroke-width="1.08501" stroke-linecap="round" stroke-linejoin="round"/>
<path d="M136.656 28.3636L141.225 42.0578L145.855 55.8974L150.538 69.8884L155.265 84.031L160.04 98.3311L164.869 112.783L169.759 127.392L174.697 142.171" stroke="url(#paint25_linear_82_12)" stroke-width="1.08501" stroke-linecap="round" stroke-linejoin="round"/>
<path d="M115.734 273.665L111.619 259.856L104.948 253.56L100.876 239.793L98.0101 235.861" stroke="url(#paint26_linear_82_12)" stroke-width="1.08501" stroke-linecap="round" stroke-linejoin="round"/>
<path d="M91.9869 224.712L90.0116 218.022L87.915 210.897L85.8488 202.226L84.7156 198.378L81.7951 188.465L81.3891 179.103L77.3353 165.391L78.6139 155.435L74.5662 141.789L77.5474 131.331L82.3041 120.551L88.8179 109.566L84.6309 95.8778L92.805 84.7467L88.5815 71.1554L98.3493 60.0426L109.686 49.1175L122.496 38.5137L136.657 28.3643L151.993 18.8087L168.353 9.96192" stroke="url(#paint27_linear_82_12)" stroke-width="1.08501" stroke-linecap="round" stroke-linejoin="round"/>
<path d="M123.781 279.046L119.673 265.34L115.601 251.767L107.56 246.186L100.877 239.794L98.5438 231.911" stroke="url(#paint28_linear_82_12)" stroke-width="1.08501" stroke-linecap="round" stroke-linejoin="round"/>
<path d="M87.915 210.897L85.9275 204.134L83.8977 197.221L81.7951 188.465L80.6559 184.575L77.7899 174.837L77.3353 165.391L73.3301 151.824L74.5662 141.789L70.5488 128.283L73.4876 117.758L69.4643 104.318L74.0997 93.4176" stroke="url(#paint29_linear_82_12)" stroke-width="1.08501" stroke-linecap="round" stroke-linejoin="round"/>
<path d="M133.093 283.596L128.973 269.987L119.672 265.34L111.619 259.856L107.559 246.186L103.524 232.649L99.1064 228.353" stroke="url(#paint30_linear_82_12)" stroke-width="1.08501" stroke-linecap="round" stroke-linejoin="round"/>
<path d="M143.564 287.293L139.426 273.775L128.973 269.987L124.889 256.499L120.848 243.15L111.565 238.315L103.524 232.65L100.549 222.646" stroke="url(#paint31_linear_82_12)" stroke-width="1.08501" stroke-linecap="round" stroke-linejoin="round"/>
<path d="M83.8982 197.22L81.8804 190.391L79.9051 183.677L77.7904 174.837L76.627 170.91L73.8153 161.349L73.3306 151.823L69.3618 138.39L70.5493 128.283L66.5806 114.91L69.4648 104.318" stroke="url(#paint32_linear_82_12)" stroke-width="1.08501" stroke-linecap="round" stroke-linejoin="round"/>
<path d="M155.083 290.122L150.92 276.689L146.794 263.389L142.71 250.203L138.662 237.152L134.657 224.215L130.688 211.399L126.755 198.705L122.853 186.126" stroke="url(#paint33_linear_82_12)" stroke-width="1.08501" stroke-linecap="round" stroke-linejoin="round"/>
<path d="M167.517 292.086L163.324 278.731L159.173 265.515L155.065 252.415L150.987 239.442L146.952 226.584L142.953 213.847L138.984 201.225L135.057 188.719" stroke="url(#paint34_linear_82_12)" stroke-width="1.08501" stroke-linecap="round" stroke-linejoin="round"/>
<path d="M79.9052 183.678L77.8752 176.776L75.9605 170.268L73.9124 163.3L72.0522 156.992L69.986 149.969L68.4408 143.916L65.9867 134.76L65.4293 125.09L66.5806 114.91" stroke="url(#paint35_linear_82_12)" stroke-width="1.08501" stroke-linecap="round" stroke-linejoin="round"/>
<path d="M180.763 293.176L176.54 279.912L172.347 266.763L168.208 253.742L164.094 240.841L160.022 228.056L155.986 215.392L151.993 202.843L148.03 190.409" stroke="url(#paint36_linear_82_12)" stroke-width="1.08501" stroke-linecap="round" stroke-linejoin="round"/>
<path d="M194.705 293.413L190.44 280.215L186.204 267.145L182.017 254.197L177.872 241.363L173.758 228.656L169.686 216.053L165.645 203.577L161.645 191.203" stroke="url(#paint37_linear_82_12)" stroke-width="1.08501" stroke-linecap="round" stroke-linejoin="round"/>
<path d="M209.218 292.8L204.903 279.676L200.632 266.666L196.396 253.79L192.203 241.017L188.04 228.371L183.926 215.834L179.842 203.413L175.794 191.1" stroke="url(#paint38_linear_82_12)" stroke-width="1.08501" stroke-linecap="round" stroke-linejoin="round"/>
<path d="M190.373 190.131L194.463 202.389L198.596 214.75L202.764 227.232L206.97 239.824L211.217 252.53L215.507 265.352L219.828 278.3L224.197 291.358" stroke="url(#paint39_linear_82_12)" stroke-width="1.08501" stroke-linecap="round" stroke-linejoin="round"/>
<path d="M205.254 188.301L209.399 200.505L213.586 212.823L217.809 225.251L222.069 237.788L226.365 250.446L230.71 263.213L235.091 276.101L239.514 289.117" stroke="url(#paint40_linear_82_12)" stroke-width="1.08501" stroke-linecap="round" stroke-linejoin="round"/>
<path d="M294.867 160.761L299.399 172.807L303.974 184.968L308.597 197.238L313.263 209.612L317.965 222.106L322.716 234.71L327.502 247.434L332.344 260.274" stroke="url(#paint41_linear_82_12)" stroke-width="1.08501" stroke-linecap="round" stroke-linejoin="round"/>
<path d="M220.33 185.635L224.529 197.796L228.777 210.066L233.055 222.452L237.381 234.946L241.738 247.556L246.137 260.28L250.572 273.126L255.062 286.087" stroke="url(#paint42_linear_82_12)" stroke-width="1.08501" stroke-linecap="round" stroke-linejoin="round"/>
<path d="M280.433 167.16L284.893 179.218L289.401 191.385L293.945 203.661L298.538 216.047L303.168 228.553L307.84 241.163L312.548 253.894L317.31 266.739" stroke="url(#paint43_linear_82_12)" stroke-width="1.08501" stroke-linecap="round" stroke-linejoin="round"/>
<path d="M235.497 182.15L239.763 194.281L244.065 206.521L248.41 218.864L252.791 231.316L257.214 243.895L261.68 256.577L266.182 269.381L270.726 282.299" stroke="url(#paint44_linear_82_12)" stroke-width="1.08501" stroke-linecap="round" stroke-linejoin="round"/>
<path d="M265.654 172.886L270.053 184.956L274.483 197.142L278.961 209.436L283.481 221.834L288.038 234.352L292.637 246.986L297.272 259.729L301.956 272.593" stroke="url(#paint45_linear_82_12)" stroke-width="1.08501" stroke-linecap="round" stroke-linejoin="round"/>
<path d="M250.639 177.891L254.972 189.992L259.335 202.195L263.746 214.508L268.193 226.942L272.683 239.479L277.21 252.137L281.785 264.904L286.396 277.792" stroke="url(#paint46_linear_82_12)" stroke-width="1.08501" stroke-linecap="round" stroke-linejoin="round"/>
<path d="M72.0523 156.992L69.8829 147.988L68.4409 143.916L65.9868 134.76" stroke="url(#paint47_linear_82_12)" stroke-width="1.08501" stroke-linecap="round" stroke-linejoin="round"/>
<path d="M75.9599 170.268L73.8148 161.349L72.6454 157.38L69.8823 147.988L69.3613 138.39L65.4288 125.09" stroke="url(#paint48_linear_82_12)" stroke-width="1.08501" stroke-linecap="round" stroke-linejoin="round"/>
<defs>
<linearGradient id="paint0_linear_82_12" x1="176.721" y1="54.5522" x2="33.9602" y2="216.073" gradientUnits="userSpaceOnUse">
<stop stop-color="#7650E1"/>
<stop offset="1" stop-color="#CABBF6"/>
</linearGradient>
<linearGradient id="paint1_linear_82_12" x1="198.711" y1="118.643" x2="90.185" y2="242.531" gradientUnits="userSpaceOnUse">
<stop stop-color="#7650E1"/>
<stop offset="1" stop-color="#CABBF6"/>
</linearGradient>
<linearGradient id="paint2_linear_82_12" x1="204.879" y1="116.873" x2="92.7106" y2="247.37" gradientUnits="userSpaceOnUse">
<stop stop-color="#7650E1"/>
<stop offset="1" stop-color="#CABBF6"/>
</linearGradient>
<linearGradient id="paint3_linear_82_12" x1="206.358" y1="110.498" x2="97.4768" y2="237.702" gradientUnits="userSpaceOnUse">
<stop stop-color="#7650E1"/>
<stop offset="1" stop-color="#CABBF6"/>
</linearGradient>
<linearGradient id="paint4_linear_82_12" x1="208.242" y1="104.591" x2="103.495" y2="227.44" gradientUnits="userSpaceOnUse">
<stop stop-color="#7650E1"/>
<stop offset="1" stop-color="#CABBF6"/>
</linearGradient>
<linearGradient id="paint5_linear_82_12" x1="212.102" y1="100.744" x2="106.119" y2="227.329" gradientUnits="userSpaceOnUse">
<stop stop-color="#7650E1"/>
<stop offset="1" stop-color="#CABBF6"/>
</linearGradient>
<linearGradient id="paint6_linear_82_12" x1="214.392" y1="95.3866" x2="112.581" y2="217.848" gradientUnits="userSpaceOnUse">
<stop stop-color="#7650E1"/>
<stop offset="1" stop-color="#CABBF6"/>
</linearGradient>
<linearGradient id="paint7_linear_82_12" x1="218.119" y1="91.5269" x2="118.079" y2="214.011" gradientUnits="userSpaceOnUse">
<stop stop-color="#7650E1"/>
<stop offset="1" stop-color="#CABBF6"/>
</linearGradient>
<linearGradient id="paint8_linear_82_12" x1="221.064" y1="86.9576" x2="125.893" y2="204.806" gradientUnits="userSpaceOnUse">
<stop stop-color="#7650E1"/>
<stop offset="1" stop-color="#CABBF6"/>
</linearGradient>
<linearGradient id="paint9_linear_82_12" x1="122.496" y1="38.5134" x2="82.6165" y2="81.7359" gradientUnits="userSpaceOnUse">
<stop stop-color="#7650E1"/>
<stop offset="1" stop-color="#CABBF6"/>
</linearGradient>
<linearGradient id="paint10_linear_82_12" x1="109.686" y1="49.1174" x2="69.5227" y2="92.6978" gradientUnits="userSpaceOnUse">
<stop stop-color="#7650E1"/>
<stop offset="1" stop-color="#CABBF6"/>
</linearGradient>
<linearGradient id="paint11_linear_82_12" x1="98.3494" y1="60.0426" x2="57.9636" y2="103.911" gradientUnits="userSpaceOnUse">
<stop stop-color="#7650E1"/>
<stop offset="1" stop-color="#CABBF6"/>
</linearGradient>
<linearGradient id="paint12_linear_82_12" x1="186.174" y1="82.7165" x2="129.216" y2="202.85" gradientUnits="userSpaceOnUse">
<stop stop-color="#7650E1"/>
<stop offset="1" stop-color="#CABBF6"/>
</linearGradient>
<linearGradient id="paint13_linear_82_12" x1="88.5812" y1="71.1553" x2="29.9589" y2="137.179" gradientUnits="userSpaceOnUse">
<stop stop-color="#7650E1"/>
<stop offset="1" stop-color="#CABBF6"/>
</linearGradient>
<linearGradient id="paint14_linear_82_12" x1="80.493" y1="82.3225" x2="23.6045" y2="146.043" gradientUnits="userSpaceOnUse">
<stop stop-color="#7650E1"/>
<stop offset="1" stop-color="#CABBF6"/>
</linearGradient>
<linearGradient id="paint15_linear_82_12" x1="195.839" y1="111.505" x2="161.572" y2="206.385" gradientUnits="userSpaceOnUse">
<stop stop-color="#7650E1"/>
<stop offset="1" stop-color="#CABBF6"/>
</linearGradient>
<linearGradient id="paint16_linear_82_12" x1="162.9" y1="13.4156" x2="37.5583" y2="181.952" gradientUnits="userSpaceOnUse">
<stop stop-color="#7650E1"/>
<stop offset="1" stop-color="#CABBF6"/>
</linearGradient>
<linearGradient id="paint17_linear_82_12" x1="167.457" y1="26.9882" x2="43.3763" y2="197.923" gradientUnits="userSpaceOnUse">
<stop stop-color="#7650E1"/>
<stop offset="1" stop-color="#CABBF6"/>
</linearGradient>
<linearGradient id="paint18_linear_82_12" x1="172.061" y1="40.6946" x2="50.1554" y2="212.413" gradientUnits="userSpaceOnUse">
<stop stop-color="#7650E1"/>
<stop offset="1" stop-color="#CABBF6"/>
</linearGradient>
<linearGradient id="paint19_linear_82_12" x1="190.979" y1="97.0349" x2="105.013" y2="257.085" gradientUnits="userSpaceOnUse">
<stop stop-color="#7650E1"/>
<stop offset="1" stop-color="#CABBF6"/>
</linearGradient>
<linearGradient id="paint20_linear_82_12" x1="98.2284" y1="243.242" x2="92.1793" y2="249.798" gradientUnits="userSpaceOnUse">
<stop stop-color="#7650E1"/>
<stop offset="1" stop-color="#CABBF6"/>
</linearGradient>
<linearGradient id="paint21_linear_82_12" x1="181.423" y1="68.562" x2="81.3772" y2="231.545" gradientUnits="userSpaceOnUse">
<stop stop-color="#7650E1"/>
<stop offset="1" stop-color="#CABBF6"/>
</linearGradient>
<linearGradient id="paint22_linear_82_12" x1="98.1618" y1="241.139" x2="90.0556" y2="249.796" gradientUnits="userSpaceOnUse">
<stop stop-color="#7650E1"/>
<stop offset="1" stop-color="#CABBF6"/>
</linearGradient>
<linearGradient id="paint23_linear_82_12" x1="168.353" y1="9.96119" x2="129.642" y2="51.7563" gradientUnits="userSpaceOnUse">
<stop stop-color="#7650E1"/>
<stop offset="1" stop-color="#CABBF6"/>
</linearGradient>
<linearGradient id="paint24_linear_82_12" x1="151.993" y1="18.8086" x2="112.842" y2="61.1347" gradientUnits="userSpaceOnUse">
<stop stop-color="#7650E1"/>
<stop offset="1" stop-color="#CABBF6"/>
</linearGradient>
<linearGradient id="paint25_linear_82_12" x1="136.656" y1="28.3636" x2="97.1103" y2="71.1728" gradientUnits="userSpaceOnUse">
<stop stop-color="#7650E1"/>
<stop offset="1" stop-color="#CABBF6"/>
</linearGradient>
<linearGradient id="paint26_linear_82_12" x1="98.0101" y1="235.861" x2="87.402" y2="247.096" gradientUnits="userSpaceOnUse">
<stop stop-color="#7650E1"/>
<stop offset="1" stop-color="#CABBF6"/>
</linearGradient>
<linearGradient id="paint27_linear_82_12" x1="158.392" y1="0.000368058" x2="25.8918" y2="177.814" gradientUnits="userSpaceOnUse">
<stop stop-color="#7650E1"/>
<stop offset="1" stop-color="#CABBF6"/>
</linearGradient>
<linearGradient id="paint28_linear_82_12" x1="98.5438" y1="231.911" x2="86.9168" y2="244.11" gradientUnits="userSpaceOnUse">
<stop stop-color="#7650E1"/>
<stop offset="1" stop-color="#CABBF6"/>
</linearGradient>
<linearGradient id="paint29_linear_82_12" x1="74.0998" y1="93.4176" x2="21.4168" y2="153.149" gradientUnits="userSpaceOnUse">
<stop stop-color="#7650E1"/>
<stop offset="1" stop-color="#CABBF6"/>
</linearGradient>
<linearGradient id="paint30_linear_82_12" x1="99.1671" y1="228.293" x2="87.7561" y2="240.146" gradientUnits="userSpaceOnUse">
<stop stop-color="#7650E1"/>
<stop offset="1" stop-color="#CABBF6"/>
</linearGradient>
<linearGradient id="paint31_linear_82_12" x1="100.549" y1="222.646" x2="88.9645" y2="234.606" gradientUnits="userSpaceOnUse">
<stop stop-color="#7650E1"/>
<stop offset="1" stop-color="#CABBF6"/>
</linearGradient>
<linearGradient id="paint32_linear_82_12" x1="69.4648" y1="104.318" x2="29.3661" y2="149.359" gradientUnits="userSpaceOnUse">
<stop stop-color="#7650E1"/>
<stop offset="1" stop-color="#CABBF6"/>
</linearGradient>
<linearGradient id="paint33_linear_82_12" x1="122.853" y1="186.126" x2="85.4872" y2="226.754" gradientUnits="userSpaceOnUse">
<stop stop-color="#7650E1"/>
<stop offset="1" stop-color="#CABBF6"/>
</linearGradient>
<linearGradient id="paint34_linear_82_12" x1="135.057" y1="188.719" x2="98.1236" y2="228.847" gradientUnits="userSpaceOnUse">
<stop stop-color="#7650E1"/>
<stop offset="1" stop-color="#CABBF6"/>
</linearGradient>
<linearGradient id="paint35_linear_82_12" x1="66.5806" y1="114.91" x2="38.1014" y2="146.617" gradientUnits="userSpaceOnUse">
<stop stop-color="#7650E1"/>
<stop offset="1" stop-color="#CABBF6"/>
</linearGradient>
<linearGradient id="paint36_linear_82_12" x1="148.03" y1="190.409" x2="111.534" y2="230.029" gradientUnits="userSpaceOnUse">
<stop stop-color="#7650E1"/>
<stop offset="1" stop-color="#CABBF6"/>
</linearGradient>
<linearGradient id="paint37_linear_82_12" x1="161.645" y1="191.203" x2="125.592" y2="230.307" gradientUnits="userSpaceOnUse">
<stop stop-color="#7650E1"/>
<stop offset="1" stop-color="#CABBF6"/>
</linearGradient>
<linearGradient id="paint38_linear_82_12" x1="175.794" y1="191.1" x2="140.177" y2="229.695" gradientUnits="userSpaceOnUse">
<stop stop-color="#7650E1"/>
<stop offset="1" stop-color="#CABBF6"/>
</linearGradient>
<linearGradient id="paint39_linear_82_12" x1="190.373" y1="190.131" x2="155.192" y2="228.216" gradientUnits="userSpaceOnUse">
<stop stop-color="#7650E1"/>
<stop offset="1" stop-color="#CABBF6"/>
</linearGradient>
<linearGradient id="paint40_linear_82_12" x1="205.254" y1="188.301" x2="170.496" y2="225.89" gradientUnits="userSpaceOnUse">
<stop stop-color="#7650E1"/>
<stop offset="1" stop-color="#CABBF6"/>
</linearGradient>
<linearGradient id="paint41_linear_82_12" x1="294.867" y1="160.761" x2="262.355" y2="195.698" gradientUnits="userSpaceOnUse">
<stop stop-color="#7650E1"/>
<stop offset="1" stop-color="#CABBF6"/>
</linearGradient>
<linearGradient id="paint42_linear_82_12" x1="220.33" y1="185.635" x2="185.989" y2="222.734" gradientUnits="userSpaceOnUse">
<stop stop-color="#7650E1"/>
<stop offset="1" stop-color="#CABBF6"/>
</linearGradient>
<linearGradient id="paint43_linear_82_12" x1="280.433" y1="167.16" x2="247.591" y2="202.489" gradientUnits="userSpaceOnUse">
<stop stop-color="#7650E1"/>
<stop offset="1" stop-color="#CABBF6"/>
</linearGradient>
<linearGradient id="paint44_linear_82_12" x1="235.497" y1="182.15" x2="201.554" y2="218.781" gradientUnits="userSpaceOnUse">
<stop stop-color="#7650E1"/>
<stop offset="1" stop-color="#CABBF6"/>
</linearGradient>
<linearGradient id="paint45_linear_82_12" x1="265.654" y1="172.886" x2="232.464" y2="208.629" gradientUnits="userSpaceOnUse">
<stop stop-color="#7650E1"/>
<stop offset="1" stop-color="#CABBF6"/>
</linearGradient>
<linearGradient id="paint46_linear_82_12" x1="250.639" y1="177.891" x2="217.082" y2="214.067" gradientUnits="userSpaceOnUse">
<stop stop-color="#7650E1"/>
<stop offset="1" stop-color="#CABBF6"/>
</linearGradient>
<linearGradient id="paint47_linear_82_12" x1="65.9868" y1="134.76" x2="57.6034" y2="143.941" gradientUnits="userSpaceOnUse">
<stop stop-color="#7650E1"/>
<stop offset="1" stop-color="#CABBF6"/>
</linearGradient>
<linearGradient id="paint48_linear_82_12" x1="65.4288" y1="125.09" x2="47.544" y2="144.833" gradientUnits="userSpaceOnUse">
<stop stop-color="#7650E1"/>
<stop offset="1" stop-color="#CABBF6"/>
</linearGradient>
</defs>
</svg>
