<svg width="150" height="159" viewBox="0 0 150 159" fill="none" xmlns="http://www.w3.org/2000/svg">
<path d="M81.3546 67.5418L83.7588 76.4436L86.1387 85.2684L88.4966 94.0117L90.8346 102.68L93.1517 111.271L95.4488 119.788L97.7261 128.23L99.9834 136.597" stroke="url(#paint0_linear_82_62)" stroke-width="1.08501" stroke-linecap="round" stroke-linejoin="round"/>
<path d="M89.9147 63.2385L92.265 72.1092L94.5908 80.9029L96.8994 89.6176L99.1879 98.2579L101.456 106.82L103.703 115.308L105.932 123.725L108.143 132.063" stroke="url(#paint1_linear_82_62)" stroke-width="1.08501" stroke-linecap="round" stroke-linejoin="round"/>
<path d="M97.6484 58.7996L99.9499 67.6301L102.228 76.3872L104.488 85.0618L106.729 93.6655L108.948 102.191L111.148 110.643L113.329 119.023L115.495 127.332" stroke="url(#paint2_linear_82_62)" stroke-width="1.08501" stroke-linecap="round" stroke-linejoin="round"/>
<path d="M104.461 54.2962L106.711 63.0796L108.946 71.7875L111.157 80.422L113.351 88.9776L115.524 97.4587L117.683 105.868L119.819 114.207L121.938 122.471" stroke="url(#paint3_linear_82_62)" stroke-width="1.08501" stroke-linecap="round" stroke-linejoin="round"/>
<path d="M110.264 49.7975L112.47 58.5282L114.66 67.1835L116.829 75.7608L118.979 84.2673L121.113 92.6983L123.228 101.059L125.323 109.344L127.4 117.566" stroke="url(#paint4_linear_82_62)" stroke-width="1.08501" stroke-linecap="round" stroke-linejoin="round"/>
<path d="M115.001 45.3753L117.167 54.0409L119.314 62.6354L121.445 71.1547L123.557 79.6031L125.648 87.977L127.726 96.2826L129.783 104.514L131.824 112.681L127.4 117.566L121.938 122.472L115.495 127.332L108.143 132.063L99.9832 136.597L91.1285 140.85L81.7145 144.759L71.8884 148.251L61.8034 151.272" stroke="url(#paint5_linear_82_62)" stroke-width="1.08501" stroke-linecap="round" stroke-linejoin="round"/>
<path d="M118.63 41.0829L120.759 49.6823L122.873 58.2098L124.965 66.6674L127.043 75.0486L129.1 83.3635L131.142 91.6065L133.165 99.7822L129.783 104.514L125.323 109.344L119.819 114.207L113.33 119.023L105.932 123.725L97.7262 128.23L88.825 132.465L79.3627 136.364L69.4876 139.857L59.3547 142.883" stroke="url(#paint6_linear_82_62)" stroke-width="1.08501" stroke-linecap="round" stroke-linejoin="round"/>
<path d="M121.135 36.9811L123.234 45.509L125.312 53.9704L127.376 62.3554L129.419 70.6741L131.446 78.9209L133.459 87.0995L131.142 91.6065L127.726 96.2823L123.228 101.058L117.683 105.868L111.148 110.643L103.703 115.308L95.4488 119.788L86.4975 124.006L76.9869 127.895L67.0621 131.386L56.8857 134.421" stroke="url(#paint7_linear_82_62)" stroke-width="1.08501" stroke-linecap="round" stroke-linejoin="round"/>
<path d="M61.8034 151.272L59.3544 142.884L56.8855 134.421L54.3931 125.884L51.8798 117.27L49.342 108.579L46.7799 99.8105L44.1993 90.9597L41.9687 83.3296L41.59 82.0294" stroke="url(#paint8_linear_82_62)" stroke-width="1.08501" stroke-linecap="round" stroke-linejoin="round"/>
<path d="M71.8886 148.251L69.4876 139.857L67.0621 131.386L64.6167 122.841L62.1504 114.218L59.6597 105.518L57.1481 96.7399L54.6156 87.8839L52.0568 78.9438" stroke="url(#paint9_linear_82_62)" stroke-width="1.08501" stroke-linecap="round" stroke-linejoin="round"/>
<path d="M81.7147 144.759L79.3626 136.364L76.987 127.895L74.5915 119.352L72.1706 110.728L69.7307 102.033L67.2725 93.256L64.7854 84.3991L62.2809 75.4634" stroke="url(#paint10_linear_82_62)" stroke-width="1.08501" stroke-linecap="round" stroke-linejoin="round"/>
<path d="M122.517 33.1204L124.585 41.5766L126.638 49.961L125.311 53.9707L122.873 58.2101L119.314 62.6355L114.66 67.1837L108.946 71.7878L102.228 76.3875L94.5909 80.903L86.1386 85.2685L76.9839 89.4081L67.2724 93.2562L57.148 96.7402L46.78 99.8108" stroke="url(#paint11_linear_82_62)" stroke-width="1.08501" stroke-linecap="round" stroke-linejoin="round"/>
<path d="M91.1287 140.85L88.8249 132.465L86.4975 124.006L84.1502 115.472L81.782 106.861L79.3939 98.1751L76.9839 89.4078L74.553 80.5625L72.0978 71.6402" stroke="url(#paint12_linear_82_62)" stroke-width="1.08501" stroke-linecap="round" stroke-linejoin="round"/>
<path d="M2.91344 40.6095L10.952 37.3653L19.2591 34.3721L27.755 31.6436L36.3608 29.2123L44.9987 27.0991L53.5898 25.3214L62.056 23.9L70.3139 22.8497L78.2908 22.1823L85.8961 21.9147L93.0588 22.0505L99.6919 22.6055L105.715 23.5785L111.049 24.9715L115.617 26.7789L117.601 34.7907L119.005 40.4696" stroke="url(#paint13_linear_82_62)" stroke-width="1.08501" stroke-linecap="round" stroke-linejoin="round"/>
<path d="M5.21288 48.1416L13.2139 44.8847L21.4843 41.8823L29.9428 39.1562L38.5168 36.7335L47.1237 34.6324L55.6866 32.8773L64.1292 31.4813L72.3655 30.4634L80.319 29.8365L87.9109 29.618L95.0576 29.8075L101.679 30.4188L107.696 31.4542L113.029 32.9122L117.601 34.7908L121.141 36.9608" stroke="url(#paint14_linear_82_62)" stroke-width="1.08501" stroke-linecap="round" stroke-linejoin="round"/>
<path d="M7.49325 55.618L15.4566 52.3484L23.6904 49.3368L32.1187 46.6112L40.6563 44.1945L49.2332 42.109L57.7707 40.3722L66.187 39.0059L74.398 38.0213L82.3362 37.4365L89.9093 37.2611L97.0435 37.5033L103.654 38.1744L109.665 39.2687L114.996 40.7918L117.847 42.0068" stroke="url(#paint15_linear_82_62)" stroke-width="1.08501" stroke-linecap="round" stroke-linejoin="round"/>
<path d="M9.75535 63.0383L17.6847 59.7551L25.8828 56.7379L34.2728 54.0111L42.782 51.602L51.3315 49.5276L59.8373 47.8145L68.2266 46.4745L76.4203 45.525L84.3342 44.9771L91.8929 44.8472L99.0147 45.1422L105.617 45.8651L111.617 47.0227" stroke="url(#paint16_linear_82_62)" stroke-width="1.08501" stroke-linecap="round" stroke-linejoin="round"/>
<path d="M124.836 37.9193L126.865 46.2303L128.877 54.4738L128.673 58.2777L130.692 66.5229L132.693 74.7008L131.446 78.921L129.1 83.3635L125.649 87.9768L121.113 92.6982L115.525 97.4586L108.949 102.191L101.456 106.82L93.1518 111.271L84.1502 115.472L74.5915 119.352L64.6167 122.841L54.3933 125.884" stroke="url(#paint17_linear_82_62)" stroke-width="1.08501" stroke-linecap="round" stroke-linejoin="round"/>
<path d="M12.0053 70.4011L19.8935 67.1062L28.0559 64.0834L36.4156 61.3572L44.8929 58.9565L53.408 56.8952L61.8883 55.2003L70.2539 53.8856L78.426 52.9685L86.3211 52.4637L93.8609 52.3768L100.969 52.721L105.759 53.2874" stroke="url(#paint18_linear_82_62)" stroke-width="1.08501" stroke-linecap="round" stroke-linejoin="round"/>
<path d="M14.235 77.716L22.0882 74.4038L30.215 71.3754L38.5409 68.6506L46.9853 66.2549L55.474 64.2084L63.9287 62.5317L72.2681 61.2469L80.414 60.3595L88.2893 59.8942L95.8148 59.853" stroke="url(#paint19_linear_82_62)" stroke-width="1.08501" stroke-linecap="round" stroke-linejoin="round"/>
<path d="M16.4487 84.9713L24.2652 81.6499L32.3598 78.6149L40.651 75.8881L49.0635 73.5009L57.5247 71.4655L65.9479 69.8125L74.2628 68.5494L80.57 67.8888" stroke="url(#paint20_linear_82_62)" stroke-width="1.08501" stroke-linecap="round" stroke-linejoin="round"/>
<path d="M120.153 23.3757L122.166 31.5996L122.582 32.2708" stroke="url(#paint21_linear_82_62)" stroke-width="1.08501" stroke-linecap="round" stroke-linejoin="round"/>
<path d="M18.6491 92.1762L26.428 88.8422L34.486 85.7979L41.9689 83.3295" stroke="url(#paint22_linear_82_62)" stroke-width="1.08501" stroke-linecap="round" stroke-linejoin="round"/>
<path d="M128.876 54.4738L130.873 62.6491L132.852 70.757L132.693 74.7008L134.677 82.8148L133.459 87.0995L135.454 95.2107L133.165 99.7822L135.174 107.89L131.823 112.681" stroke="url(#paint23_linear_82_62)" stroke-width="1.08501" stroke-linecap="round" stroke-linejoin="round"/>
<path d="M117.343 20.8425L119.348 28.9928L122.166 31.5994L122.521 33.0505" stroke="url(#paint24_linear_82_62)" stroke-width="1.08501" stroke-linecap="round" stroke-linejoin="round"/>
<path d="M113.62 18.7024L115.617 26.7788L119.348 28.9928L121.24 36.691" stroke="url(#paint25_linear_82_62)" stroke-width="1.08501" stroke-linecap="round" stroke-linejoin="round"/>
<path d="M132.852 70.7573L134.817 78.8005L136.764 86.7763L136.647 90.8608L135.454 95.211L137.432 103.258L135.174 107.89" stroke="url(#paint26_linear_82_62)" stroke-width="1.08501" stroke-linecap="round" stroke-linejoin="round"/>
<path d="M109.053 16.9672L111.049 24.9716L113.029 32.9122L114.996 40.7916L115.877 44.3351" stroke="url(#paint27_linear_82_62)" stroke-width="1.08501" stroke-linecap="round" stroke-linejoin="round"/>
<path d="M103.713 15.64L105.715 23.5785L107.696 31.4541L109.665 39.2685L111.617 47.0226L112.843 47.3891" stroke="url(#paint28_linear_82_62)" stroke-width="1.08501" stroke-linecap="round" stroke-linejoin="round"/>
<path d="M136.765 86.776L138.695 94.6881L138.599 98.8391" stroke="url(#paint29_linear_82_62)" stroke-width="1.08501" stroke-linecap="round" stroke-linejoin="round"/>
<path d="M97.6852 14.7331L99.6921 22.6056L101.679 30.4187L103.655 38.1743L105.617 45.8651L107.22 52.1592" stroke="url(#paint30_linear_82_62)" stroke-width="1.08501" stroke-linecap="round" stroke-linejoin="round"/>
<path d="M91.0415 14.2379L93.0589 22.0505L95.0576 29.8075L97.0437 37.5031L99.0146 45.1422L100.969 52.7209L101.824 56.0397" stroke="url(#paint31_linear_82_62)" stroke-width="1.08501" stroke-linecap="round" stroke-linejoin="round"/>
<path d="M83.869 14.1504L85.8963 21.9148L87.9109 29.6181L89.9095 37.2611L91.8928 44.8473L93.861 52.3768L95.8149 59.8533" stroke="url(#paint32_linear_82_62)" stroke-width="1.08501" stroke-linecap="round" stroke-linejoin="round"/>
<path d="M76.242 14.4656L78.2907 22.1825L80.3189 29.8366L82.3362 37.4365L84.3339 44.9772L86.321 52.4637L88.2893 59.8945L89.265 63.5646" stroke="url(#paint33_linear_82_62)" stroke-width="1.08501" stroke-linecap="round" stroke-linejoin="round"/>
<path d="M68.25 15.1747L70.3141 22.8496L72.3655 30.4632L74.3982 38.021L76.4203 45.5248L78.4261 52.9683L80.4142 60.3596L82.2285 67.1023" stroke="url(#paint34_linear_82_62)" stroke-width="1.08501" stroke-linecap="round" stroke-linejoin="round"/>
<path d="M59.9677 16.2622L62.056 23.9002L64.1292 31.4814L66.1871 39.0059L68.2264 46.4746L70.2539 53.8857L72.2682 61.2472L74.2628 68.5493L74.7834 70.4497" stroke="url(#paint35_linear_82_62)" stroke-width="1.08501" stroke-linecap="round" stroke-linejoin="round"/>
<path d="M18.6491 92.1763L16.4488 84.9711L14.2351 77.7162L12.0053 70.401L9.75516 63.0382L7.49336 55.6177L5.21281 48.1415L2.91348 40.6095L0.594482 33.0181" stroke="url(#paint36_linear_82_62)" stroke-width="1.08501" stroke-linecap="round" stroke-linejoin="round"/>
<path d="M26.428 88.8423L24.2652 81.6497L22.0882 74.4041L19.8934 67.1061L17.6844 59.7551L15.4567 52.3482L13.2137 44.8847L10.952 37.3654L8.67603 29.7929" stroke="url(#paint37_linear_82_62)" stroke-width="1.08501" stroke-linecap="round" stroke-linejoin="round"/>
<path d="M34.486 85.7979L32.3599 78.6146L30.215 71.3754L28.0559 64.0832L25.8826 56.7377L23.6905 49.3365L21.4842 41.8821L19.2591 34.372L17.0179 26.8016" stroke="url(#paint38_linear_82_62)" stroke-width="1.08501" stroke-linecap="round" stroke-linejoin="round"/>
<path d="M42.3758 81.7999L40.6511 75.8878L38.541 68.6508L36.4157 61.3571L34.2727 54.0111L32.1188 46.611L29.9428 39.1562L27.7551 31.6436L25.5496 24.0789" stroke="url(#paint39_linear_82_62)" stroke-width="1.08501" stroke-linecap="round" stroke-linejoin="round"/>
<path d="M50.7407 79.3344L49.0636 73.5007L46.9854 66.2551L44.893 58.9564L42.7818 51.602L40.6564 44.1943L38.5167 36.7334L36.3609 29.2123L34.1873 21.6391" stroke="url(#paint40_linear_82_62)" stroke-width="1.08501" stroke-linecap="round" stroke-linejoin="round"/>
<path d="M58.9702 76.5899L57.5249 71.4653L55.4741 64.2086L53.4081 56.8952L51.3314 49.5276L49.2334 42.1088L47.1237 34.6324L44.9988 27.0992L42.8552 19.5103" stroke="url(#paint41_linear_82_62)" stroke-width="1.08501" stroke-linecap="round" stroke-linejoin="round"/>
<path d="M134.817 78.8002L134.677 82.8148L136.647 90.8605L138.599 98.839L137.432 103.258" stroke="url(#paint42_linear_82_62)" stroke-width="1.08501" stroke-linecap="round" stroke-linejoin="round"/>
<path d="M67.0062 73.62L65.948 69.8124L63.9289 62.5321L61.8884 55.2004L59.8372 47.8146L57.7708 40.3722L55.6866 32.8774L53.5899 25.3216L51.4753 17.7135" stroke="url(#paint43_linear_82_62)" stroke-width="1.08501" stroke-linecap="round" stroke-linejoin="round"/>
<path d="M130.873 62.6492L130.692 66.5229L129.419 70.6742L127.043 75.0487L123.557 79.6029L118.979 84.2672L113.351 88.9776L106.729 93.6656L99.188 98.2578L90.8346 102.68L81.782 106.861L72.1705 110.728L62.1504 114.218L51.8799 117.27" stroke="url(#paint44_linear_82_62)" stroke-width="1.08501" stroke-linecap="round" stroke-linejoin="round"/>
<path d="M126.865 46.2303L126.638 49.9607L128.673 58.2778L127.376 62.3555L124.965 66.6674L121.445 71.1546L116.829 75.7607L111.157 80.422L104.488 85.0619L96.8996 89.6175L88.4967 94.0115L79.394 98.1751L69.7307 102.033L59.6598 105.518L49.3423 108.579" stroke="url(#paint45_linear_82_62)" stroke-width="1.08501" stroke-linecap="round" stroke-linejoin="round"/>
<path d="M121.988 26.2838L122.788 29.5528L124.836 37.9194L124.585 41.5763L123.234 45.5091L120.759 49.6823L117.167 54.0407L112.47 58.5281L106.712 63.0796L99.9499 67.6302L92.265 72.1091L83.7588 76.4434L74.553 80.5625L64.7853 84.3991L54.6155 87.8838L44.1995 90.9597" stroke="url(#paint46_linear_82_62)" stroke-width="1.08501" stroke-linecap="round" stroke-linejoin="round"/>
<path d="M111.617 47.0229L111.926 48.2468" stroke="url(#paint47_linear_82_62)" stroke-width="1.08501" stroke-linecap="round" stroke-linejoin="round"/>
<path d="M41.5903 82.0293L42.3759 81.7998L50.7408 79.3343L52.0569 78.9437L58.9703 76.5898L62.2809 75.4634L67.0063 73.6198L72.0979 71.6402L74.7836 70.4496L80.5702 67.8885L81.3547 67.5416L82.2285 67.1023L89.2653 63.5644L89.9149 63.2384L95.815 59.8531L97.6485 58.7996L101.824 56.0397L104.461 54.2962L105.759 53.2873L107.22 52.1591L110.264 49.7974L111.926 48.2466L112.844 47.3891L115.001 45.3751L115.877 44.3351L117.848 42.0066L118.63 41.0829L119.005 40.4696L121.135 36.9812L121.141 36.9607L121.24 36.6911L122.517 33.1201L122.521 33.0507L122.582 32.2709L122.601 32.0035L122.787 29.5643L122.789 29.5412L121.988 26.2838L120.153 23.3757L117.343 20.8427L113.62 18.7025L109.053 16.9672L103.714 15.6401L97.6852 14.7331L91.0416 14.2378L83.869 14.1502L76.2422 14.4654L68.25 15.1748L59.9678 16.262L51.4754 17.7133L42.8553 19.5102L34.1874 21.639L25.5496 24.0789L17.0181 26.8017L8.67624 29.7928L0.594612 33.0181" stroke="url(#paint48_linear_82_62)" stroke-width="1.08501" stroke-linecap="round" stroke-linejoin="round"/>
<defs>
<linearGradient id="paint0_linear_82_62" x1="81.4716" y1="67.5105" x2="81.3443" y2="67.5447" gradientUnits="userSpaceOnUse">
<stop stop-color="#7650E1"/>
<stop offset="1" stop-color="#CABBF6"/>
</linearGradient>
<linearGradient id="paint1_linear_82_62" x1="89.9147" y1="63.2386" x2="89.6986" y2="63.2965" gradientUnits="userSpaceOnUse">
<stop stop-color="#7650E1"/>
<stop offset="1" stop-color="#CABBF6"/>
</linearGradient>
<linearGradient id="paint2_linear_82_62" x1="97.6484" y1="58.7996" x2="97.1237" y2="58.9405" gradientUnits="userSpaceOnUse">
<stop stop-color="#7650E1"/>
<stop offset="1" stop-color="#CABBF6"/>
</linearGradient>
<linearGradient id="paint3_linear_82_62" x1="104.461" y1="54.2963" x2="103.658" y2="54.512" gradientUnits="userSpaceOnUse">
<stop stop-color="#7650E1"/>
<stop offset="1" stop-color="#CABBF6"/>
</linearGradient>
<linearGradient id="paint4_linear_82_62" x1="110.264" y1="49.7975" x2="109.226" y2="50.0768" gradientUnits="userSpaceOnUse">
<stop stop-color="#7650E1"/>
<stop offset="1" stop-color="#CABBF6"/>
</linearGradient>
<linearGradient id="paint5_linear_82_62" x1="115.001" y1="45.3754" x2="34.1175" y2="73.2937" gradientUnits="userSpaceOnUse">
<stop stop-color="#7650E1"/>
<stop offset="1" stop-color="#CABBF6"/>
</linearGradient>
<linearGradient id="paint6_linear_82_62" x1="118.63" y1="41.0829" x2="33.146" y2="71.4778" gradientUnits="userSpaceOnUse">
<stop stop-color="#7650E1"/>
<stop offset="1" stop-color="#CABBF6"/>
</linearGradient>
<linearGradient id="paint7_linear_82_62" x1="121.135" y1="36.9812" x2="32.2647" y2="69.5224" gradientUnits="userSpaceOnUse">
<stop stop-color="#7650E1"/>
<stop offset="1" stop-color="#CABBF6"/>
</linearGradient>
<linearGradient id="paint8_linear_82_62" x1="43.1388" y1="81.6144" x2="41.4534" y2="82.0692" gradientUnits="userSpaceOnUse">
<stop stop-color="#7650E1"/>
<stop offset="1" stop-color="#CABBF6"/>
</linearGradient>
<linearGradient id="paint9_linear_82_62" x1="53.2334" y1="78.6285" x2="51.9529" y2="78.9735" gradientUnits="userSpaceOnUse">
<stop stop-color="#7650E1"/>
<stop offset="1" stop-color="#CABBF6"/>
</linearGradient>
<linearGradient id="paint10_linear_82_62" x1="63.089" y1="75.2469" x2="62.2095" y2="75.4834" gradientUnits="userSpaceOnUse">
<stop stop-color="#7650E1"/>
<stop offset="1" stop-color="#CABBF6"/>
</linearGradient>
<linearGradient id="paint11_linear_82_62" x1="122.517" y1="33.1204" x2="33.7952" y2="72.8108" gradientUnits="userSpaceOnUse">
<stop stop-color="#7650E1"/>
<stop offset="1" stop-color="#CABBF6"/>
</linearGradient>
<linearGradient id="paint12_linear_82_62" x1="72.5514" y1="71.5187" x2="72.0576" y2="71.6513" gradientUnits="userSpaceOnUse">
<stop stop-color="#7650E1"/>
<stop offset="1" stop-color="#CABBF6"/>
</linearGradient>
<linearGradient id="paint13_linear_82_62" x1="110.916" y1="9.23517" x2="9.23013" y2="69.0595" gradientUnits="userSpaceOnUse">
<stop stop-color="#7650E1"/>
<stop offset="1" stop-color="#CABBF6"/>
</linearGradient>
<linearGradient id="paint14_linear_82_62" x1="115.55" y1="16.0926" x2="24.6273" y2="86.8488" gradientUnits="userSpaceOnUse">
<stop stop-color="#7650E1"/>
<stop offset="1" stop-color="#CABBF6"/>
</linearGradient>
<linearGradient id="paint15_linear_82_62" x1="113.224" y1="24.7501" x2="32.0573" y2="95.5039" gradientUnits="userSpaceOnUse">
<stop stop-color="#7650E1"/>
<stop offset="1" stop-color="#CABBF6"/>
</linearGradient>
<linearGradient id="paint16_linear_82_62" x1="108.151" y1="34.0864" x2="42.2492" y2="103.043" gradientUnits="userSpaceOnUse">
<stop stop-color="#7650E1"/>
<stop offset="1" stop-color="#CABBF6"/>
</linearGradient>
<linearGradient id="paint17_linear_82_62" x1="124.836" y1="37.9194" x2="33.1779" y2="73.4105" gradientUnits="userSpaceOnUse">
<stop stop-color="#7650E1"/>
<stop offset="1" stop-color="#CABBF6"/>
</linearGradient>
<linearGradient id="paint18_linear_82_62" x1="103.099" y1="43.3602" x2="50.9459" y2="108.401" gradientUnits="userSpaceOnUse">
<stop stop-color="#7650E1"/>
<stop offset="1" stop-color="#CABBF6"/>
</linearGradient>
<linearGradient id="paint19_linear_82_62" x1="94.1443" y1="53.6187" x2="63.1722" y2="108.914" gradientUnits="userSpaceOnUse">
<stop stop-color="#7650E1"/>
<stop offset="1" stop-color="#CABBF6"/>
</linearGradient>
<linearGradient id="paint20_linear_82_62" x1="79.8625" y1="65.2484" x2="72.7083" y2="97.7368" gradientUnits="userSpaceOnUse">
<stop stop-color="#7650E1"/>
<stop offset="1" stop-color="#CABBF6"/>
</linearGradient>
<linearGradient id="paint21_linear_82_62" x1="120.195" y1="23.3643" x2="119.956" y2="23.4289" gradientUnits="userSpaceOnUse">
<stop stop-color="#7650E1"/>
<stop offset="1" stop-color="#CABBF6"/>
</linearGradient>
<linearGradient id="paint22_linear_82_62" x1="41.9689" y1="83.3295" x2="29.222" y2="100.33" gradientUnits="userSpaceOnUse">
<stop stop-color="#7650E1"/>
<stop offset="1" stop-color="#CABBF6"/>
</linearGradient>
<linearGradient id="paint23_linear_82_62" x1="128.876" y1="54.4738" x2="116.09" y2="58.1343" gradientUnits="userSpaceOnUse">
<stop stop-color="#7650E1"/>
<stop offset="1" stop-color="#CABBF6"/>
</linearGradient>
<linearGradient id="paint24_linear_82_62" x1="119.154" y1="20.3573" x2="117.008" y2="20.9607" gradientUnits="userSpaceOnUse">
<stop stop-color="#7650E1"/>
<stop offset="1" stop-color="#CABBF6"/>
</linearGradient>
<linearGradient id="paint25_linear_82_62" x1="116.392" y1="17.9597" x2="113.216" y2="18.8532" gradientUnits="userSpaceOnUse">
<stop stop-color="#7650E1"/>
<stop offset="1" stop-color="#CABBF6"/>
</linearGradient>
<linearGradient id="paint26_linear_82_62" x1="132.852" y1="70.7573" x2="125.14" y2="72.957" gradientUnits="userSpaceOnUse">
<stop stop-color="#7650E1"/>
<stop offset="1" stop-color="#CABBF6"/>
</linearGradient>
<linearGradient id="paint27_linear_82_62" x1="109.053" y1="16.9672" x2="108.536" y2="17.1065" gradientUnits="userSpaceOnUse">
<stop stop-color="#7650E1"/>
<stop offset="1" stop-color="#CABBF6"/>
</linearGradient>
<linearGradient id="paint28_linear_82_62" x1="104.295" y1="15.4843" x2="103.149" y2="15.7944" gradientUnits="userSpaceOnUse">
<stop stop-color="#7650E1"/>
<stop offset="1" stop-color="#CABBF6"/>
</linearGradient>
<linearGradient id="paint29_linear_82_62" x1="136.765" y1="86.7761" x2="135.348" y2="87.169" gradientUnits="userSpaceOnUse">
<stop stop-color="#7650E1"/>
<stop offset="1" stop-color="#CABBF6"/>
</linearGradient>
<linearGradient id="paint30_linear_82_62" x1="97.6853" y1="14.7332" x2="97.1838" y2="14.8681" gradientUnits="userSpaceOnUse">
<stop stop-color="#7650E1"/>
<stop offset="1" stop-color="#CABBF6"/>
</linearGradient>
<linearGradient id="paint31_linear_82_62" x1="91.0415" y1="14.2379" x2="90.6171" y2="14.3519" gradientUnits="userSpaceOnUse">
<stop stop-color="#7650E1"/>
<stop offset="1" stop-color="#CABBF6"/>
</linearGradient>
<linearGradient id="paint32_linear_82_62" x1="83.869" y1="14.1504" x2="83.5642" y2="14.2322" gradientUnits="userSpaceOnUse">
<stop stop-color="#7650E1"/>
<stop offset="1" stop-color="#CABBF6"/>
</linearGradient>
<linearGradient id="paint33_linear_82_62" x1="76.242" y1="14.4656" x2="76.1069" y2="14.5018" gradientUnits="userSpaceOnUse">
<stop stop-color="#7650E1"/>
<stop offset="1" stop-color="#CABBF6"/>
</linearGradient>
<linearGradient id="paint34_linear_82_62" x1="68.3103" y1="15.1586" x2="68.2447" y2="15.1762" gradientUnits="userSpaceOnUse">
<stop stop-color="#7650E1"/>
<stop offset="1" stop-color="#CABBF6"/>
</linearGradient>
<linearGradient id="paint35_linear_82_62" x1="60.2441" y1="16.1882" x2="59.9432" y2="16.2689" gradientUnits="userSpaceOnUse">
<stop stop-color="#7650E1"/>
<stop offset="1" stop-color="#CABBF6"/>
</linearGradient>
<linearGradient id="paint36_linear_82_62" x1="2.65014" y1="32.4673" x2="0.413867" y2="33.0731" gradientUnits="userSpaceOnUse">
<stop stop-color="#7650E1"/>
<stop offset="1" stop-color="#CABBF6"/>
</linearGradient>
<linearGradient id="paint37_linear_82_62" x1="10.4765" y1="29.3105" x2="8.51766" y2="29.8404" gradientUnits="userSpaceOnUse">
<stop stop-color="#7650E1"/>
<stop offset="1" stop-color="#CABBF6"/>
</linearGradient>
<linearGradient id="paint38_linear_82_62" x1="18.5668" y1="26.3866" x2="16.8816" y2="26.8419" gradientUnits="userSpaceOnUse">
<stop stop-color="#7650E1"/>
<stop offset="1" stop-color="#CABBF6"/>
</linearGradient>
<linearGradient id="paint39_linear_82_62" x1="26.8184" y1="23.739" x2="25.4377" y2="24.1115" gradientUnits="userSpaceOnUse">
<stop stop-color="#7650E1"/>
<stop offset="1" stop-color="#CABBF6"/>
</linearGradient>
<linearGradient id="paint40_linear_82_62" x1="35.208" y1="21.3656" x2="34.0972" y2="21.6649" gradientUnits="userSpaceOnUse">
<stop stop-color="#7650E1"/>
<stop offset="1" stop-color="#CABBF6"/>
</linearGradient>
<linearGradient id="paint41_linear_82_62" x1="43.6208" y1="19.3051" x2="42.7876" y2="19.5293" gradientUnits="userSpaceOnUse">
<stop stop-color="#7650E1"/>
<stop offset="1" stop-color="#CABBF6"/>
</linearGradient>
<linearGradient id="paint42_linear_82_62" x1="134.817" y1="78.8002" x2="130.83" y2="79.9219" gradientUnits="userSpaceOnUse">
<stop stop-color="#7650E1"/>
<stop offset="1" stop-color="#CABBF6"/>
</linearGradient>
<linearGradient id="paint43_linear_82_62" x1="51.9892" y1="17.5758" x2="51.4299" y2="17.7261" gradientUnits="userSpaceOnUse">
<stop stop-color="#7650E1"/>
<stop offset="1" stop-color="#CABBF6"/>
</linearGradient>
<linearGradient id="paint44_linear_82_62" x1="130.873" y1="62.6492" x2="45.6428" y2="107.073" gradientUnits="userSpaceOnUse">
<stop stop-color="#7650E1"/>
<stop offset="1" stop-color="#CABBF6"/>
</linearGradient>
<linearGradient id="paint45_linear_82_62" x1="126.865" y1="46.2303" x2="38.6261" y2="87.757" gradientUnits="userSpaceOnUse">
<stop stop-color="#7650E1"/>
<stop offset="1" stop-color="#CABBF6"/>
</linearGradient>
<linearGradient id="paint46_linear_82_62" x1="121.988" y1="26.2838" x2="32.4905" y2="67.5938" gradientUnits="userSpaceOnUse">
<stop stop-color="#7650E1"/>
<stop offset="1" stop-color="#CABBF6"/>
</linearGradient>
<linearGradient id="paint47_linear_82_62" x1="111.617" y1="47.0229" x2="111.598" y2="47.0281" gradientUnits="userSpaceOnUse">
<stop stop-color="#7650E1"/>
<stop offset="1" stop-color="#CABBF6"/>
</linearGradient>
<linearGradient id="paint48_linear_82_62" x1="114.945" y1="2.04567e-05" x2="-2.05514" y2="51.8811" gradientUnits="userSpaceOnUse">
<stop stop-color="#7650E1"/>
<stop offset="1" stop-color="#CABBF6"/>
</linearGradient>
</defs>
</svg>
