<svg xmlns="http://www.w3.org/2000/svg" width="1486" height="1490" viewBox="0 0 1486 1490" version="1.1"><path d="M 869.994 609.750 C 869.989 877.160, 869.779 923.877, 868.545 932 C 860.567 984.534, 826.739 1020.343, 773.919 1032.168 C 764.851 1034.198, 760.843 1034.499, 743 1034.494 C 720.743 1034.488, 714.174 1033.561, 696.500 1027.932 C 662.519 1017.109, 635.859 992.049, 622.988 958.833 C 621.852 955.900, 619.749 949, 618.316 943.500 C 615.848 934.029, 615.686 931.875, 615.258 902.750 L 614.807 872 501.903 872 L 389 872 389.010 896.750 C 389.025 930.914, 390.969 952.179, 396.603 979.787 C 406.331 1027.461, 427.779 1073.015, 458.617 1111.500 C 470.307 1126.088, 492.490 1148.099, 508.210 1160.708 C 561.009 1203.055, 618.767 1226.485, 693 1235.670 C 713.947 1238.262, 774.263 1238.270, 795 1235.684 C 831.515 1231.131, 860.992 1223.910, 890.500 1212.290 C 972.785 1179.888, 1037.812 1117.745, 1070.784 1040 C 1082.082 1013.362, 1089.328 986.340, 1094.247 952.500 L 1096.427 937.500 1096.733 617.250 L 1097.039 297 983.519 297 L 870 297 869.994 609.750" stroke="none" fill="#241c24" fill-rule="evenodd"/><path d="M 955.500 1.471 C 930.999 5.987, 910.399 16.745, 891.923 34.673 C 877.250 48.911, 867.695 63.671, 861.165 82.186 C 845.996 125.193, 856.485 173.435, 888.228 206.659 C 906.264 225.537, 927.222 237.187, 953 242.667 C 964.637 245.140, 989.265 245.167, 1000.692 242.718 C 1038.347 234.649, 1069.144 211.619, 1085.897 179 C 1096.230 158.880, 1099.429 145.567, 1099.471 122.500 C 1099.502 105.139, 1098.454 97.834, 1093.924 83.846 C 1080.277 41.705, 1042.719 9.065, 999.129 1.463 C 988.872 -0.325, 965.223 -0.321, 955.500 1.471 M 655.500 7.678 C 553.250 20.579, 459.149 51.747, 372.848 101.298 C 285.505 151.448, 208.197 219.892, 148.319 300.085 C 65.913 410.447, 15.858 540.626, 2.429 679.500 C 0.252 702.012, -0.639 767.879, 0.910 791.786 C 17.097 1041.594, 156.543 1266.562, 371.742 1390.044 C 468.350 1445.479, 573.326 1477.971, 687 1487.623 C 711.137 1489.673, 769.301 1489.970, 793 1488.165 C 876.852 1481.779, 953.785 1463.547, 1029 1432.235 C 1224.026 1351.049, 1372.279 1194.518, 1443.936 994.130 C 1465.170 934.752, 1478.192 873.307, 1484.693 801.816 C 1486.588 780.978, 1487.626 707, 1486.023 707 C 1485.443 707, 1485 704.474, 1485 701.161 C 1485 687.790, 1480.535 648.453, 1475.901 621 C 1455.026 497.334, 1401.457 378.295, 1322.447 279.998 C 1304.318 257.445, 1292.771 249.071, 1271.998 243.413 C 1262.110 240.721, 1242.890 240.931, 1232.585 243.846 C 1224.636 246.094, 1213.256 251.291, 1207.557 255.276 C 1201.841 259.273, 1191.779 269.481, 1187.796 275.322 C 1178.169 289.444, 1174 303.248, 1174 321 C 1174 340.202, 1178.977 354.844, 1190.488 369.510 C 1225.867 414.585, 1244.274 442.622, 1264.012 481.500 C 1297.442 547.348, 1317.164 615.515, 1325.203 693 C 1327.246 712.689, 1326.919 784.322, 1324.697 804 C 1310.917 926.013, 1266.573 1030.880, 1189.611 1123.462 C 1176.486 1139.250, 1137.965 1177.774, 1121.391 1191.686 C 997.475 1295.697, 837.202 1344.757, 679.548 1326.934 C 518.958 1308.779, 373.708 1226.362, 277.421 1098.760 C 211.504 1011.406, 171.718 908.440, 160.820 797 C 158.789 776.228, 159.099 709.783, 161.319 690 C 169.205 619.747, 185.886 559.227, 214.069 498.630 C 258.690 402.687, 329.095 320.331, 417.031 261.215 C 438.380 246.863, 457.696 235.710, 483 223.127 C 543.030 193.275, 599.367 176.088, 668.787 166.448 C 697.570 162.451, 711.079 156.313, 725.679 140.600 C 740.508 124.639, 746.946 108.111, 746.983 85.910 C 747.044 48.494, 720.630 16.201, 683.729 8.579 C 676.792 7.146, 663.164 6.711, 655.500 7.678 M 0.455 746.500 C 0.455 767.950, 0.587 776.583, 0.749 765.684 C 0.911 754.785, 0.910 737.235, 0.748 726.684 C 0.587 716.133, 0.454 725.050, 0.455 746.500" stroke="none" fill="#3c34bc" fill-rule="evenodd"/></svg>